<svg width="680" height="587" viewBox="0 0 680 587" fill="none" xmlns="http://www.w3.org/2000/svg">
<g clip-path="url(#clip0_7176_154433)">
<g opacity="0.4">
<path opacity="0.8" fill-rule="evenodd" clip-rule="evenodd" d="M339.686 587.561L738.83 426.024L339.686 251.718V587.561ZM339.685 251.718L-59.46 418.363L339.685 587.562L339.685 251.718Z" fill="#A4A7AB"/>
<path d="M151.292 330.977L85.6181 358.486L122.317 373.585L187.995 346.071L151.292 330.977Z" fill="#A4A7AB"/>
<path d="M311.961 303.377L257.726 326.094L288.033 338.564L342.272 315.842L311.961 303.377Z" fill="#A4A7AB"/>
<path d="M468.535 316.58L428.114 333.512L450.701 342.805L491.126 325.871L468.535 316.58Z" fill="#A4A7AB"/>
<path d="M291.938 271.366L226.265 298.875L262.963 313.974L328.641 286.461L291.938 271.366Z" fill="#A4A7AB"/>
<path d="M246.169 337.564L187.856 361.99L220.441 375.397L278.76 350.967L246.169 337.564Z" fill="#A4A7AB"/>
<path d="M394.608 409.306L357.344 424.915L378.167 433.482L415.434 417.871L394.608 409.306Z" fill="#A4A7AB"/>
<path d="M459.389 409.306L422.125 424.915L442.948 433.482L480.215 417.871L459.389 409.306Z" fill="#A4A7AB"/>
<path d="M578.441 366.382L552.47 377.261L566.983 383.232L592.956 372.351L578.441 366.382Z" fill="#A4A7AB"/>
<path d="M333.237 423.783L295.972 439.392L316.796 447.959L354.063 432.348L333.237 423.783Z" fill="#A4A7AB"/>
<path d="M357.103 441.666L319.839 457.275L340.662 465.842L377.929 450.231L357.103 441.666Z" fill="#A4A7AB"/>
<path d="M379.264 291.788L342 307.397L362.823 315.964L400.09 300.353L379.264 291.788Z" fill="#A4A7AB"/>
<path d="M429.613 291.3L380.436 311.899L407.916 323.205L457.097 302.603L429.613 291.3Z" fill="#A4A7AB"/>
<path d="M435.582 377.31L386.405 397.908L413.885 409.214L463.065 388.612L435.582 377.31Z" fill="#A4A7AB"/>
<path d="M514.854 367.943L465.677 388.541L493.157 399.847L542.338 379.245L514.854 367.943Z" fill="#A4A7AB"/>
<path d="M527.639 334.731L478.463 355.33L505.942 366.636L555.123 346.034L527.639 334.731Z" fill="#A4A7AB"/>
<path d="M371.594 273.053L334.33 288.662L355.153 297.23L392.42 281.618L371.594 273.053Z" fill="#A4A7AB"/>
<path d="M167.019 370.133L129.755 385.742L150.578 394.31L187.845 378.698L167.019 370.133Z" fill="#A4A7AB"/>
<path d="M222.297 312.429L178.386 330.822L202.923 340.918L246.838 322.522L222.297 312.429Z" fill="#A4A7AB"/>
<path d="M256.4 369.924L198.086 394.35L230.672 407.757L288.99 383.327L256.4 369.924Z" fill="#A4A7AB"/>
<path d="M304.534 388.648L218.724 424.591L266.675 444.32L352.492 408.37L304.534 388.648Z" fill="#A4A7AB"/>
<path d="M415.346 338.404L329.536 374.347L377.486 394.076L463.303 358.127L415.346 338.404Z" fill="#A4A7AB"/>
<path d="M352.247 323.513L280.007 353.772L320.375 370.381L392.621 340.117L352.247 323.513Z" fill="#A4A7AB"/>
<path opacity="0.8" fill-rule="evenodd" clip-rule="evenodd" d="M339.686 587.561L738.83 426.024L339.686 251.718V587.561ZM339.685 251.718L-59.46 418.363L339.685 587.562L339.685 251.718Z" fill="url(#paint0_linear_7176_154433)"/>
</g>
<path d="M293.234 420.187L289.202 420.202C288.103 421.669 286.222 423.422 285.76 423.422C285.616 423.422 285.553 423.39 285.234 423.119C284.995 422.912 284.58 422.625 284.054 422.322C285.186 421.701 286.349 420.76 287.226 419.708C288.166 418.609 288.724 417.684 289.282 416.282C290.063 416.537 290.477 416.712 291.003 417.015C291.226 417.142 291.306 417.222 291.306 417.366C291.306 417.493 291.258 417.573 291.115 417.684C290.955 417.796 290.796 418.003 290.382 418.561L292.756 418.577C293.617 418.577 293.776 418.561 294.254 418.386C294.318 418.37 294.366 418.354 294.43 418.354C294.685 418.354 294.956 418.593 295.418 419.182C295.721 419.581 295.8 419.724 295.8 419.9C295.8 420.075 295.753 420.155 295.529 420.378C295.402 420.521 295.195 420.824 295.035 421.095C293.314 424.203 291.657 426.163 289.123 428.06C288.023 428.888 286.573 429.733 286.27 429.733C286.142 429.733 286.031 429.669 285.887 429.51C285.616 429.223 285.186 428.92 284.564 428.586C286.891 427.47 288.517 426.354 290.111 424.745C291.242 423.597 292.039 422.513 292.74 421.191C292.884 420.92 292.979 420.712 293.234 420.187ZM307.168 422.179C301.127 422.258 300.012 422.306 298.88 422.513C298.848 422.513 298.768 422.529 298.753 422.529C298.402 422.529 298.258 421.987 298.147 420.346C298.928 420.473 300.028 420.521 302.992 420.521C306.179 420.521 307.04 420.521 307.343 420.489C307.582 420.473 307.63 420.457 307.948 420.362C308.06 420.314 308.156 420.298 308.251 420.298C308.49 420.298 308.682 420.41 308.937 420.681C309.367 421.175 309.654 421.621 309.654 421.812C309.654 421.987 309.574 422.115 309.383 422.322C309.255 422.434 309.176 422.577 308.873 423.262C307.805 425.605 306.61 427.04 304.729 428.235C303.868 428.793 302.482 429.43 302.163 429.43C301.94 429.43 301.813 429.335 301.542 429.016C301.127 428.522 300.936 428.347 300.49 428.123C302.307 427.582 303.964 426.673 305.143 425.542C306.036 424.681 306.705 423.565 307.168 422.179ZM299.757 416.696C300.793 416.824 301.797 416.856 304.092 416.856C305.749 416.856 305.749 416.856 307.582 416.728C307.646 416.728 307.662 416.728 307.773 416.728C307.98 416.728 308.06 416.887 308.076 417.366C308.076 417.557 308.076 417.732 308.092 417.892C308.092 417.923 308.092 417.955 308.092 417.955C308.092 418.529 308.028 418.688 307.821 418.688C307.757 418.688 307.63 418.672 307.486 418.672C307.183 418.641 305.988 418.609 305.494 418.609C303.103 418.609 301.398 418.641 300.458 418.72C300.41 418.72 300.362 418.72 300.33 418.72C299.916 418.72 299.852 418.481 299.757 416.696ZM317.017 418.752V418.274C317.017 417.397 316.985 416.935 316.905 416.25C318.021 416.282 318.674 416.346 319.072 416.457C319.2 416.489 319.28 416.585 319.28 416.696C319.28 416.776 319.248 416.856 319.184 416.967C319.041 417.206 319.009 417.493 319.009 418.242V418.752H321.049C321.543 418.752 321.862 418.704 322.18 418.593C322.372 418.529 322.467 418.497 322.579 418.497C322.866 418.497 323.328 418.832 323.854 419.406C324.125 419.708 324.22 419.852 324.22 420.011C324.22 420.123 324.188 420.234 324.093 420.426C323.949 420.697 323.902 420.824 323.71 421.653C323.36 423.103 323.057 423.868 322.403 424.968C321.352 426.785 319.837 428.187 317.957 429.128C317.495 429.351 317.208 429.462 317.096 429.462C316.985 429.462 316.921 429.414 316.793 429.255C316.522 428.904 316.14 428.586 315.534 428.203C316.809 427.661 317.479 427.311 318.228 426.785C319.822 425.669 320.81 424.346 321.447 422.513C321.718 421.701 321.846 421.143 321.909 420.426C320.459 420.394 319.869 420.394 318.594 420.394C317.24 420.394 316.347 420.394 314.371 420.426C314.355 421.414 314.355 421.414 314.355 421.573C314.355 421.972 314.355 422.306 314.371 422.912C314.371 422.944 314.371 422.976 314.371 422.992C314.371 423.135 314.323 423.199 314.196 423.247C314.036 423.278 313.526 423.326 313.128 423.326C312.522 423.326 312.411 423.278 312.411 423.023C312.411 422.944 312.411 422.816 312.427 422.625C312.442 422.434 312.474 420.728 312.474 420.346C312.474 419.836 312.458 419.374 312.411 418.657C312.857 418.72 313.749 418.752 314.769 418.752H317.017ZM329.96 422.864V424.649C329.96 425.637 330.007 428.235 330.039 428.984C330.039 429.016 330.039 429.048 330.039 429.064C330.039 429.207 330.007 429.319 329.928 429.367C329.816 429.462 329.179 429.542 328.589 429.542C328.079 429.542 327.983 429.494 327.983 429.175C327.983 429.159 327.983 429.143 327.983 429.112C328.015 428.697 328.063 424.091 328.063 422.211C328.063 418.545 328.031 417.493 327.888 416.585C329.035 416.648 329.545 416.712 330.007 416.808C330.167 416.84 330.246 416.919 330.246 417.047C330.246 417.142 330.246 417.142 330.183 417.413C330.119 417.605 330.087 417.812 330.071 418.083C330.071 418.115 330.039 419.071 329.991 420.952C331.123 421.27 331.123 421.27 331.776 421.509C333.37 422.067 334.279 422.466 335.697 423.231C335.825 423.31 335.888 423.39 335.888 423.502C335.888 423.661 335.601 424.426 335.346 424.904C335.219 425.175 335.139 425.255 335.044 425.255C334.98 425.255 334.9 425.223 334.789 425.143C333.227 424.107 331.585 423.326 329.96 422.864ZM334.087 419.82C334.024 419.82 333.976 419.788 333.928 419.692C333.609 419.119 333.211 418.577 332.733 418.083C332.653 417.987 332.637 417.987 332.637 417.939C332.637 417.844 332.717 417.748 333.02 417.541C333.243 417.366 333.37 417.302 333.45 417.302C333.593 417.302 333.737 417.429 334.135 417.86C334.661 418.433 335.028 418.927 335.028 419.071C335.028 419.246 334.31 419.82 334.087 419.82ZM336.637 418.035C336.637 418.131 336.526 418.242 336.159 418.497C335.952 418.641 335.809 418.72 335.729 418.72C335.681 418.72 335.649 418.688 335.57 418.577C335.187 417.939 334.82 417.461 334.374 417.015C334.326 416.967 334.295 416.919 334.295 416.887C334.295 416.76 334.932 416.314 335.123 416.314C335.203 416.314 335.299 416.362 335.458 416.505C335.952 416.967 336.637 417.844 336.637 418.035ZM340.545 419.9H341.167C341.167 418.131 341.103 417.206 340.976 416.696C341.263 416.712 341.263 416.712 341.884 416.744C342.075 416.744 342.936 416.887 343.048 416.919C343.159 416.967 343.207 417.031 343.207 417.127C343.207 417.206 343.207 417.206 343.111 417.541C343.032 417.764 343.016 418.099 342.984 419.9C343.382 419.9 344.562 419.9 346.538 419.884C346.538 418.067 346.49 417.35 346.363 416.585C347.223 416.632 347.701 416.68 348.163 416.76C348.498 416.808 348.594 416.872 348.594 417.015C348.594 417.127 348.578 417.174 348.482 417.429C348.434 417.541 348.387 418.035 348.371 418.545C348.371 418.864 348.371 419.501 348.371 419.692C348.371 419.788 348.371 419.788 348.371 419.868C349.98 419.836 350.586 419.82 351.064 419.772C351.128 419.756 351.176 419.756 351.223 419.756C351.303 419.756 351.367 419.788 351.399 419.836C351.447 419.932 351.478 420.314 351.478 420.824C351.478 421.573 351.447 421.653 351.208 421.653C351.176 421.653 351.176 421.653 350.825 421.621C350.283 421.573 350.156 421.573 348.339 421.573C348.243 423.964 347.924 425.239 347.128 426.514C346.442 427.613 345.55 428.426 344.323 429.112C343.892 429.351 343.318 429.574 343.159 429.574C343.016 429.574 343 429.558 342.665 429.207C342.314 428.825 342.091 428.665 341.597 428.362C343.892 427.534 345.088 426.593 345.821 425.047C346.267 424.091 346.458 423.151 346.522 421.557C346.123 421.557 346.076 421.557 345.486 421.557C345.343 421.557 344.896 421.557 344.243 421.573C343.956 421.589 343.526 421.589 342.952 421.605C342.952 422.737 342.952 422.737 342.984 424.171C342.984 424.235 342.984 424.346 342.984 424.378C342.984 424.601 342.936 424.681 342.761 424.745C342.569 424.793 342.075 424.84 341.693 424.84C341.135 424.84 341.055 424.793 341.055 424.506C341.055 424.442 341.055 424.346 341.055 424.267C341.119 422.816 341.135 422.561 341.151 421.637C340.322 421.653 338.856 421.748 338.473 421.812C338.442 421.828 338.41 421.828 338.378 421.828C338.25 421.828 338.171 421.764 338.139 421.621C338.059 421.35 337.979 420.585 337.948 419.788C338.76 419.884 339.223 419.9 340.545 419.9ZM353.09 421.86C354.381 421.987 355.513 422.019 358.844 422.019C361.76 422.019 363.434 421.987 365.043 421.876C365.091 421.876 365.187 421.876 365.251 421.876C365.729 421.876 365.729 421.892 365.729 423.167C365.729 423.82 365.681 423.932 365.41 423.932C365.41 423.932 365.362 423.932 365.346 423.932C364.294 423.884 363.705 423.884 359.099 423.884C357.409 423.884 356.565 423.9 355.098 423.948C354.987 423.948 354.859 423.948 354.636 423.948C354.126 423.948 354.047 423.964 353.744 424.012C353.664 424.012 353.6 424.027 353.568 424.027C353.393 424.027 353.282 423.948 353.25 423.804C353.154 423.406 353.09 422.593 353.09 421.86ZM381.087 417.78C381.087 417.939 380.402 418.481 380.195 418.481C380.131 418.481 380.099 418.449 380.035 418.338C379.605 417.652 379.334 417.286 378.84 416.776C378.776 416.712 378.76 416.696 378.76 416.648C378.76 416.521 379.382 416.043 379.541 416.043C379.685 416.043 379.876 416.202 380.227 416.585C380.689 417.079 381.087 417.637 381.087 417.78ZM378.553 419.581C378.474 419.581 378.442 419.549 378.378 419.453C378.043 418.816 377.709 418.386 377.199 417.844C377.103 417.732 377.103 417.732 377.103 417.684C377.103 417.589 377.183 417.493 377.469 417.286C377.709 417.111 377.836 417.047 377.916 417.047C378.043 417.047 378.219 417.19 378.601 417.605C379.111 418.194 379.478 418.688 379.478 418.832C379.478 418.991 378.76 419.581 378.553 419.581ZM371.063 423.804C371.063 425.797 371.079 426.099 371.206 426.307C371.461 426.689 372.162 426.832 373.692 426.832C375.19 426.832 375.955 426.769 378.187 426.466C378.234 426.45 378.282 426.45 378.33 426.45C378.489 426.45 378.569 426.53 378.601 426.705C378.649 426.96 378.729 427.757 378.729 428.028C378.729 428.267 378.649 428.378 378.426 428.442C377.932 428.554 375.7 428.681 373.884 428.681C372.035 428.681 371.094 428.554 370.345 428.203C369.788 427.932 369.421 427.486 369.294 426.928C369.214 426.546 369.182 426.195 369.182 425.557C369.182 425.398 369.182 425.207 369.182 424.936C369.214 423.262 369.214 423.055 369.214 421.956C369.214 419.198 369.166 418.194 369.023 417.445C370.983 417.605 371.413 417.7 371.413 418.003C371.413 418.083 371.397 418.115 371.318 418.29C371.27 418.402 371.222 418.609 371.174 418.927C371.11 419.406 371.094 419.772 371.094 420.617C371.079 421.238 371.079 421.669 371.079 421.908C373.836 421.095 376.083 419.979 377.007 418.959C377.788 419.932 378.25 420.665 378.25 420.888C378.25 421.031 378.187 421.079 377.868 421.191C377.645 421.27 377.23 421.446 376.609 421.764C374.649 422.705 373.246 423.215 371.063 423.804ZM389.67 423.549C390.913 424.378 391.758 425.016 392.746 425.94C393.766 426.864 394.387 427.534 394.387 427.709C394.387 427.852 394.18 428.107 393.686 428.586C393.319 428.936 393.16 429.048 393.048 429.048C392.985 429.048 392.905 429.016 392.809 428.936C392.634 428.729 392.634 428.729 391.901 427.9C391.024 426.912 389.829 425.86 388.443 424.872C387.391 425.972 385.972 427.167 384.825 427.948C383.916 428.57 383.056 429.048 382.864 429.048C382.705 429.048 382.689 429.032 382.307 428.602C382.083 428.347 381.717 428.028 381.318 427.741C383.151 426.896 384.506 425.988 386.02 424.601C387.662 423.103 388.745 421.717 390.02 419.517C384.633 419.549 384.633 419.549 383.757 419.645C383.566 419.661 383.534 419.661 383.502 419.661C383.327 419.661 383.231 419.581 383.199 419.406C383.119 418.896 383.088 418.417 383.088 417.573C384.171 417.716 385.861 417.78 388.172 417.78C389.112 417.78 390.1 417.748 390.626 417.684C390.833 417.668 390.865 417.652 391.2 417.541C391.263 417.509 391.295 417.509 391.391 417.509C391.662 417.509 391.949 417.732 392.331 418.242C392.634 418.672 392.809 419.007 392.809 419.182C392.809 419.374 392.762 419.437 392.347 419.82C392.092 420.075 391.981 420.202 391.487 421.015C391.008 421.812 390.275 422.816 389.67 423.549Z" fill="#A4AFBC"/>
</g>
<defs>
<linearGradient id="paint0_linear_7176_154433" x1="339.685" y1="251.718" x2="339.685" y2="587.562" gradientUnits="userSpaceOnUse">
<stop stop-color="#2B3138" stop-opacity="0"/>
<stop offset="0.71" stop-color="#2B3138"/>
</linearGradient>
<clipPath id="clip0_7176_154433">
<rect width="680" height="587" fill="white"/>
</clipPath>
</defs>
</svg>
