<svg width="680" height="587" viewBox="0 0 680 587" fill="none" xmlns="http://www.w3.org/2000/svg">
<path opacity="0.8" fill-rule="evenodd" clip-rule="evenodd" d="M339.602 367.884L573.281 261.672L339.602 155.46V155.126L339.235 155.293L338.866 155.125V155.46L105.188 261.672L338.866 367.884V368.218L339.234 368.051L339.602 368.219V367.884Z" fill="#58616C"/>
<path opacity="0.8" fill-rule="evenodd" clip-rule="evenodd" d="M339.602 212.759L573.281 106.547L339.602 0.334587V0.000571373L339.235 0.167579L338.866 0V0.335158L105.188 106.547L338.866 212.759V213.093L339.234 212.926L339.602 213.094V212.759Z" fill="#00AFF2"/>
<path d="M277.337 88.745V90.1794C281.799 89.0797 282.214 88.9522 282.58 88.6334C282.724 88.5219 282.835 88.4741 282.963 88.4741C283.202 88.4741 283.584 88.7609 283.983 89.2391C284.413 89.7331 284.636 90.0997 284.636 90.2591C284.636 90.4822 284.604 90.53 284.222 90.8009C284.047 90.9444 283.999 90.9922 283.234 92.0759C282.756 92.7453 281.688 93.8928 281.082 94.3709C280.891 94.5303 280.795 94.5781 280.684 94.5781C280.588 94.5781 280.524 94.5462 280.413 94.4347C280.062 94.0681 279.743 93.845 279.122 93.5422C280.477 92.5859 281.608 91.4225 282.022 90.5619L281.385 90.7531C281.321 90.7691 279.982 91.1356 277.337 91.8687V94.7534C277.337 95.5981 277.528 96.0125 277.974 96.2037C278.437 96.3791 279.106 96.4588 280.062 96.4588C280.859 96.4588 282.022 96.3791 282.915 96.2675C283.25 96.2356 283.329 96.2197 283.377 96.2197C283.712 96.2197 283.792 96.4747 283.839 97.6859C283.839 97.7337 283.839 97.7656 283.839 97.7656C283.839 97.7975 283.839 97.8134 283.839 97.8134C283.839 98.0047 283.776 98.1322 283.648 98.18C283.457 98.2597 282.309 98.3075 280.716 98.3075C278.723 98.3075 277.687 98.18 276.891 97.8134C275.95 97.3831 275.456 96.4906 275.456 95.2316V92.3947C273.576 92.9366 273.368 93.0162 272.842 93.2872C272.731 93.335 272.667 93.3669 272.603 93.3669C272.317 93.3669 271.982 92.6337 271.647 91.3587C272.699 91.2472 273.894 91.0241 275.456 90.6416V89.1275C275.456 87.7887 275.424 87.0556 275.313 86.3703C276.062 86.3703 276.922 86.4659 277.369 86.5775C277.512 86.6253 277.608 86.705 277.608 86.8006C277.608 86.8962 277.608 86.8962 277.48 87.1672C277.385 87.3744 277.337 87.9322 277.337 88.745ZM286.372 91.4225C287.662 91.55 288.794 91.5819 292.125 91.5819C295.042 91.5819 296.715 91.55 298.325 91.4384C298.372 91.4384 298.468 91.4384 298.532 91.4384C299.01 91.4384 299.01 91.4544 299.01 92.7294C299.01 93.3828 298.962 93.4944 298.691 93.4944C298.691 93.4944 298.643 93.4944 298.627 93.4944C297.576 93.4466 296.986 93.4466 292.38 93.4466C290.691 93.4466 289.846 93.4625 288.38 93.5103C288.268 93.5103 288.141 93.5103 287.917 93.5103C287.407 93.5103 287.328 93.5262 287.025 93.5741C286.945 93.5741 286.882 93.59 286.85 93.59C286.674 93.59 286.563 93.5103 286.531 93.3669C286.435 92.9684 286.372 92.1556 286.372 91.4225ZM303.004 87.1512C303.896 87.1672 304.629 87.2628 305.059 87.4062C305.187 87.4541 305.251 87.5497 305.251 87.6772C305.251 87.7409 305.251 87.7728 305.219 87.9003C305.123 88.2509 305.107 88.5059 305.107 89.1434C305.075 93.0322 304.374 95.5184 302.701 97.6381C302.334 98.0844 302.191 98.2278 302.031 98.2278C301.968 98.2278 301.888 98.1959 301.76 98.1322C301.33 97.8612 300.932 97.7178 300.214 97.5584C301.314 96.4428 301.744 95.8531 302.223 94.7694C302.892 93.2712 303.163 91.7572 303.163 89.4781C303.163 88.4262 303.131 87.9481 303.004 87.1512ZM306.765 94.9287V88.9522C306.765 88.1712 306.717 87.5497 306.621 86.8803C308.343 86.9441 308.964 87.0716 308.964 87.3903C308.964 87.4859 308.948 87.5337 308.884 87.7091C308.837 87.8047 308.789 88.0597 308.773 88.2987C308.725 88.7291 308.725 88.7291 308.693 95.7416C310.717 94.5941 312.04 93.4944 313.379 91.805C313.411 92.6337 313.474 93.2394 313.618 93.7175C313.666 93.8609 313.666 93.9087 313.666 93.9884C313.666 94.2434 313.506 94.4506 312.773 95.1359C311.594 96.2197 310.797 96.7775 309.315 97.5584C308.964 97.7337 308.757 97.8772 308.566 98.0525C308.454 98.1481 308.311 98.2119 308.199 98.2119C308.008 98.2119 307.434 97.8294 307.02 97.4309C306.701 97.1122 306.558 96.8731 306.558 96.6659C306.558 96.5862 306.574 96.5384 306.621 96.395C306.733 96.0922 306.765 95.8053 306.765 94.9287ZM322.095 93.1119C323.338 93.9406 324.183 94.5781 325.171 95.5025C326.191 96.4269 326.812 97.0962 326.812 97.2716C326.812 97.415 326.605 97.67 326.111 98.1481C325.745 98.4987 325.585 98.6103 325.474 98.6103C325.41 98.6103 325.33 98.5784 325.235 98.4987C325.059 98.2916 325.059 98.2916 324.326 97.4628C323.45 96.4747 322.254 95.4228 320.868 94.4347C319.816 95.5344 318.397 96.7297 317.25 97.5106C316.341 98.1322 315.481 98.6103 315.29 98.6103C315.13 98.6103 315.114 98.5944 314.732 98.1641C314.509 97.9091 314.142 97.5903 313.744 97.3034C315.576 96.4588 316.931 95.5503 318.445 94.1637C320.087 92.6656 321.171 91.2791 322.446 89.0797C317.059 89.1116 317.059 89.1116 316.182 89.2072C315.991 89.2231 315.959 89.2231 315.927 89.2231C315.752 89.2231 315.656 89.1434 315.624 88.9681C315.545 88.4581 315.513 87.98 315.513 87.1353C316.596 87.2787 318.286 87.3425 320.597 87.3425C321.537 87.3425 322.525 87.3106 323.051 87.2469C323.258 87.2309 323.29 87.215 323.625 87.1034C323.689 87.0716 323.721 87.0716 323.816 87.0716C324.087 87.0716 324.374 87.2947 324.756 87.8047C325.059 88.235 325.235 88.5697 325.235 88.745C325.235 88.9362 325.187 89 324.772 89.3825C324.517 89.6375 324.406 89.765 323.912 90.5778C323.434 91.3747 322.701 92.3787 322.095 93.1119ZM334.124 93.7972C335.765 92.4106 336.913 91.1516 338.028 89.5737C332.482 89.6534 332.482 89.6534 330.633 89.7331C329.311 89.7809 329.311 89.7809 328.817 89.8766C328.737 89.8766 328.657 89.8925 328.625 89.8925C328.434 89.8925 328.323 89.7969 328.243 89.5897C328.083 89.1434 327.988 88.5537 327.956 87.7569C329.056 87.8844 330.729 87.9481 332.753 87.9481C335.016 87.9481 337.088 87.9162 337.981 87.8684C338.379 87.8366 338.538 87.8047 338.809 87.7091C338.953 87.6612 339.033 87.6453 339.144 87.6453C339.463 87.6453 339.782 87.9162 340.323 88.6812C340.626 89.1116 340.77 89.3984 340.77 89.5737C340.77 89.7491 340.738 89.7809 340.467 89.9722C340.228 90.1316 340.1 90.275 339.574 90.9125C338.14 92.6816 337.248 93.59 335.415 95.0722C336.371 96.0284 337.072 96.8891 337.072 97.0803C337.072 97.2556 336.865 97.4947 336.371 97.8931C336.02 98.18 335.749 98.3394 335.638 98.3394C335.542 98.3394 335.463 98.2916 335.351 98.1481C334.363 96.8253 334.044 96.4428 333.199 95.5981C332.179 94.5622 332.132 94.5303 330.347 93.1278C330.267 93.08 330.235 93.0003 330.235 92.9206C330.235 92.7931 330.506 92.4744 330.936 92.06C331.191 91.8528 331.319 91.7572 331.414 91.7572C331.478 91.7572 331.542 91.7731 331.638 91.8369C332.307 92.2194 333.199 92.9366 334.124 93.7972ZM347.103 95.8531V94.0362C346.21 94.5781 345.19 95.0881 344.107 95.5503C343.389 95.8531 342.943 96.0125 342.832 96.0125C342.72 96.0125 342.64 95.9806 342.545 95.8691C342.051 95.3112 341.796 95.0881 341.254 94.7534C342.545 94.3709 343.868 93.8291 345.382 93.0481C347.151 92.1556 348.171 91.4066 349.924 89.7491C345.127 89.7491 344.393 89.765 343.533 89.8925C343.485 89.9084 343.453 89.9084 343.421 89.9084C343.294 89.9084 343.246 89.8447 343.214 89.6534C343.134 89.1753 343.103 88.7291 343.103 88.0597C344.107 88.1872 345.413 88.2509 347.103 88.2669V87.5975C347.103 87.0875 347.055 86.3225 346.991 85.8762C347.868 85.8762 348.458 85.9241 348.888 86.0197C349.111 86.0675 349.223 86.1631 349.223 86.3225C349.223 86.3862 349.207 86.4341 349.159 86.5297C349.063 86.7369 348.999 87.1512 348.999 87.6294V88.2828C350.482 88.2828 351.008 88.235 351.358 88.0597C351.39 88.0437 351.422 88.0437 351.47 88.0437C351.677 88.0437 351.9 88.2191 352.219 88.5856C352.601 89.0319 352.761 89.3028 352.761 89.4781C352.761 89.6375 352.681 89.7331 352.474 89.8766C352.187 90.0678 351.932 90.2909 351.247 90.9125C350.386 91.7094 349.988 92.0441 348.983 92.7931V96.1719C348.983 96.6659 349.015 97.7975 349.031 98.1481C349.047 98.4031 349.047 98.5625 349.047 98.6263V98.7059C349.047 98.7378 349.047 98.7538 349.047 98.7538C349.047 98.8494 349.015 98.9131 348.952 98.945C348.84 99.0088 348.33 99.0566 347.9 99.0566C347.884 99.0566 347.836 99.0566 347.788 99.0566C347.087 99.0406 347.055 99.0247 347.039 98.8334C347.039 98.69 347.039 98.6741 347.071 98.0844C347.087 97.6062 347.103 96.7934 347.103 95.8531ZM350.179 93.8291C350.179 93.7175 350.322 93.4466 350.561 93.1437C350.928 92.6497 351.071 92.5062 351.199 92.5062C351.326 92.5062 351.549 92.6019 352.091 92.8569C352.984 93.2872 353.988 93.9087 354.593 94.4347C354.737 94.5462 354.769 94.61 354.769 94.6737C354.769 94.8331 354.657 95.0244 354.211 95.6459C353.956 95.9806 353.813 96.1081 353.669 96.1081C353.589 96.1081 353.526 96.0762 353.43 95.9966C352.49 95.1997 351.231 94.3709 350.418 94.0362C350.227 93.9725 350.179 93.9247 350.179 93.8291ZM367.482 89.2709C367.578 90.02 367.642 90.2272 367.976 91.1037C368.04 91.2631 368.056 91.3587 368.056 91.4544C368.056 91.6616 367.976 91.7891 367.673 92.1237C366.351 93.59 364.996 94.7853 363.37 95.885C361.984 96.8253 360.39 97.67 358.844 98.3234C358.382 98.5147 358.238 98.5944 358.063 98.7538C357.92 98.8653 357.872 98.8972 357.792 98.8972C357.489 98.8972 356.948 98.0206 356.469 96.7616C358.015 96.4906 359.832 95.7416 361.681 94.6259C362.828 93.9406 364.199 92.9047 365.187 91.9803C366.064 91.1675 366.558 90.5619 367.482 89.2709ZM366.733 88.8725C366.669 88.8725 366.638 88.8406 366.574 88.745C366.207 88.0916 365.888 87.6453 365.394 87.1353C365.315 87.0556 365.299 87.0237 365.299 86.9919C365.299 86.8962 365.394 86.7847 365.665 86.5934C365.92 86.4181 366.016 86.3544 366.112 86.3544C366.239 86.3544 366.398 86.4819 366.797 86.9122C367.291 87.47 367.673 87.98 367.673 88.1234C367.673 88.2987 366.956 88.8725 366.733 88.8725ZM360.358 91.7412C360.358 91.9006 360.135 92.3309 359.768 92.9206C359.545 93.2712 359.482 93.335 359.354 93.335C359.243 93.335 359.243 93.335 358.557 92.8728C357.999 92.5062 357.298 92.1716 356.151 91.7731C355.896 91.6775 355.816 91.6137 355.816 91.5022C355.816 91.4225 355.943 91.1516 356.198 90.7212C356.262 90.5938 356.326 90.4981 356.358 90.4184C356.533 90.0997 356.613 90.0041 356.74 90.0041C357.011 90.0041 358.207 90.4503 359.067 90.8647C359.545 91.1037 360.151 91.4544 360.278 91.55C360.326 91.6137 360.358 91.6616 360.358 91.7412ZM369.283 87.0716C369.283 87.1831 369.156 87.2947 368.805 87.5497C368.598 87.6931 368.454 87.7728 368.375 87.7728C368.327 87.7728 368.295 87.7569 368.215 87.6294C367.785 86.9281 367.498 86.5616 367.02 86.0675C366.956 86.0197 366.94 85.9719 366.94 85.9559C366.94 85.8125 367.578 85.3662 367.769 85.3662C367.897 85.3662 368.12 85.5416 368.438 85.8922C368.901 86.4022 369.283 86.9441 369.283 87.0716ZM362.048 88.5059C362.048 88.6812 361.681 89.3187 361.298 89.7969C361.091 90.0519 361.012 90.1156 360.9 90.1156C360.836 90.1156 360.757 90.0837 360.661 89.9881C359.673 89.1275 358.733 88.5219 357.713 88.1234C357.553 88.0597 357.489 87.9959 357.489 87.9003C357.489 87.8366 357.505 87.7887 357.585 87.6612C358.35 86.4978 358.382 86.45 358.557 86.45C358.876 86.45 360.199 87.0875 361.107 87.6931C361.872 88.2031 362.048 88.3466 362.048 88.5059ZM375.046 91.3906C375.875 90.0519 376.449 88.9044 376.911 87.6772C377.086 87.1991 377.166 86.8644 377.262 86.2906C378.648 86.7847 379.493 87.2628 379.493 87.5656C379.493 87.6453 379.461 87.6931 379.35 87.8206C379.047 88.1394 378.808 88.5059 378.553 89.0478C377.756 90.6894 377.325 91.4703 376.576 92.6337C377.294 93.2234 378.011 93.9247 378.553 94.5144C378.696 94.6737 378.76 94.7853 378.76 94.9128C378.76 95.0722 378.569 95.3591 378.122 95.8372C377.788 96.2037 377.596 96.3631 377.453 96.3631C377.373 96.3631 377.294 96.3153 377.166 96.1719C376.21 95.0881 376.114 94.9766 375.413 94.2753C374.058 95.9806 372.512 97.4309 371.014 98.4191C370.536 98.7538 370.249 98.8813 370.074 98.8813C369.915 98.8813 369.899 98.8813 369.5 98.4987C369.229 98.2597 368.831 97.9728 368.353 97.7019C370.552 96.6181 372.369 95.1041 373.963 92.9684C373.214 92.3469 372.831 92.0759 371.476 91.1994C371.158 91.0081 371.126 90.9762 371.126 90.8647C371.126 90.6894 371.317 90.4184 371.827 89.8287C372.002 89.6216 372.13 89.5419 372.257 89.5419C372.465 89.5419 373.532 90.2591 375.046 91.3906ZM392.99 88.5537C393.165 89.1434 393.308 89.4622 393.723 90.275C393.802 90.4344 393.834 90.5459 393.834 90.6416C393.834 90.8009 393.771 90.9125 393.563 91.1994C392.687 92.3469 391.747 93.2712 390.328 94.3709C388.734 95.6141 387.38 96.4428 385.467 97.3512C384.24 97.925 384.176 97.9569 383.985 98.1322C383.857 98.2597 383.794 98.2916 383.698 98.2916C383.555 98.2916 383.427 98.1641 383.188 97.8134C382.869 97.3353 382.567 96.6819 382.391 96.1241C384.001 95.7575 385.929 94.8969 387.794 93.7175C390.248 92.1716 391.794 90.6416 392.99 88.5537ZM382.407 88.6494C382.407 88.5059 382.71 88.0597 383.108 87.5975C383.379 87.2947 383.491 87.215 383.634 87.215C383.937 87.2309 385.132 87.9959 386.121 88.7928C386.726 89.2869 386.917 89.4941 386.917 89.6534C386.917 89.765 386.631 90.1953 386.248 90.6256C385.897 91.0241 385.722 91.1675 385.595 91.1675C385.483 91.1675 385.483 91.1675 384.83 90.5459C384.415 90.1475 383.587 89.4781 383.172 89.2231C382.614 88.8566 382.614 88.8566 382.503 88.7928C382.439 88.745 382.407 88.6972 382.407 88.6494ZM399.547 92.3309V94.1319C399.547 95.1041 399.595 97.7019 399.627 98.4509C399.627 98.4828 399.627 98.5147 399.627 98.5306C399.627 98.6741 399.595 98.7856 399.515 98.8334C399.404 98.9291 398.766 99.0088 398.177 99.0088C397.667 99.0088 397.571 98.9609 397.571 98.6422C397.571 98.6263 397.571 98.6103 397.571 98.5784C397.603 98.1641 397.651 93.5741 397.651 91.6775C397.651 88.0119 397.619 86.9759 397.475 86.0516C398.623 86.1312 399.133 86.1791 399.595 86.2747C399.755 86.3225 399.834 86.4022 399.834 86.5297C399.834 86.6094 399.834 86.6094 399.77 86.8803C399.707 87.0716 399.675 87.2947 399.659 87.5497C399.659 87.5816 399.627 88.5378 399.579 90.4184C400.711 90.7372 400.711 90.7372 401.364 90.9762C402.958 91.5341 403.866 91.9484 405.285 92.6975C405.412 92.7931 405.476 92.8728 405.476 92.9684C405.476 93.1278 405.189 93.8928 404.934 94.3709C404.807 94.6419 404.727 94.7216 404.631 94.7216C404.568 94.7216 404.488 94.6897 404.376 94.61C402.815 93.5741 401.173 92.8091 399.547 92.3309ZM295.15 120.901C295.006 120.901 295.006 120.901 294.592 120.056C294.13 119.068 293.492 118.016 293.014 117.41C292.934 117.315 292.903 117.235 292.903 117.187C292.903 117.076 293.174 116.837 293.668 116.534C294.05 116.295 294.305 116.167 294.433 116.167C294.512 116.167 294.592 116.215 294.704 116.374C295.516 117.378 296.775 119.53 296.775 119.897C296.775 119.992 296.712 120.072 296.504 120.215C296.138 120.47 295.293 120.901 295.15 120.901ZM302.242 116.024C304.027 116.502 304.553 116.725 304.553 117.012C304.553 117.076 304.521 117.155 304.394 117.378C304.202 117.697 304.123 117.904 303.868 118.59C303.294 120.136 303.007 120.805 302.561 121.697C301.525 123.69 300.298 125.22 298.56 126.686C297.764 127.339 296.951 127.881 296.744 127.881C296.616 127.881 296.616 127.881 296.186 127.547C295.947 127.339 295.437 127.084 294.911 126.861C298.21 125.06 300.329 122.574 301.589 119.004C301.987 117.872 302.194 116.9 302.242 116.024ZM316.216 117.394V118.064C316.216 120.343 316.072 121.825 315.77 122.941C315.196 124.965 313.921 126.59 312.04 127.626C311.642 127.849 311.339 127.977 311.227 127.977C311.116 127.977 311.036 127.929 310.925 127.802C310.558 127.339 310.271 127.084 309.713 126.718C310.733 126.335 311.594 125.793 312.295 125.108C313.108 124.311 313.634 123.355 313.921 122.207C314.128 121.299 314.272 119.578 314.272 117.745C314.272 116.454 314.224 115.817 314.112 115.227C315.068 115.243 315.642 115.307 316.136 115.402C316.343 115.45 316.439 115.53 316.439 115.689C316.439 115.769 316.423 115.832 316.375 115.976C316.248 116.327 316.216 116.645 316.216 117.394ZM310.016 117.442V120.136C310.016 120.502 310.032 121.235 310.048 121.682C310.048 121.841 310.064 122 310.064 122.064C310.064 122.383 309.841 122.447 308.598 122.447C308.12 122.447 308.024 122.383 308.024 122.112C308.024 122.048 308.024 121.905 308.024 121.793C308.088 120.55 308.12 119.865 308.12 118.733C308.12 116.884 308.072 116.167 307.944 115.338C308.757 115.354 309.506 115.402 309.873 115.482C310.096 115.53 310.223 115.641 310.223 115.832C310.223 115.912 310.207 115.96 310.176 116.056C310.048 116.374 310.016 116.677 310.016 117.442ZM325.851 121.427H323.062C322.488 121.427 322.105 121.458 321.755 121.506C321.707 121.522 321.675 121.522 321.643 121.522C321.5 121.522 321.404 121.442 321.372 121.267C321.293 120.917 321.245 120.407 321.245 119.705C321.787 119.817 322.759 119.865 324.512 119.865C325.962 119.865 326.106 119.849 326.393 119.721C326.456 119.705 326.52 119.689 326.568 119.689C326.839 119.689 327.094 119.833 327.476 120.167C327.811 120.47 328.034 120.789 328.034 120.948C328.034 121.012 328.002 121.092 327.907 121.219C327.715 121.474 327.715 121.474 327.46 122.988C327.269 124.247 327.173 124.757 327.062 125.283C327.046 125.331 327.046 125.331 327.046 125.379C328.464 125.379 328.735 125.363 329.421 125.315C329.453 125.315 329.5 125.315 329.516 125.315C329.739 125.315 329.787 125.475 329.787 126.303C329.787 126.957 329.755 127.052 329.548 127.052C329.468 127.052 329.437 127.052 328.783 127.021C328.257 126.989 326.552 126.973 325.038 126.973C322.568 126.973 320.719 127.021 320.049 127.1C320.002 127.1 319.954 127.1 319.906 127.1C319.683 127.1 319.587 127.052 319.523 126.925C319.46 126.734 319.396 126.272 319.332 125.283C320.448 125.379 320.894 125.395 325.261 125.395C325.293 125.267 325.293 125.252 325.309 125.124C325.516 124.12 325.707 122.781 325.851 121.427ZM331.855 120.422C333.146 120.55 334.277 120.582 337.608 120.582C340.525 120.582 342.198 120.55 343.808 120.438C343.856 120.438 343.951 120.438 344.015 120.438C344.493 120.438 344.493 120.454 344.493 121.729C344.493 122.383 344.445 122.494 344.174 122.494C344.174 122.494 344.127 122.494 344.111 122.494C343.059 122.447 342.469 122.447 337.863 122.447C336.174 122.447 335.329 122.462 333.863 122.51C333.751 122.51 333.624 122.51 333.401 122.51C332.891 122.51 332.811 122.526 332.508 122.574C332.428 122.574 332.365 122.59 332.333 122.59C332.158 122.59 332.046 122.51 332.014 122.367C331.918 121.968 331.855 121.156 331.855 120.422ZM358.492 118.271C358.588 119.02 358.652 119.227 358.986 120.104C359.05 120.263 359.066 120.359 359.066 120.454C359.066 120.662 358.986 120.789 358.683 121.124C357.361 122.59 356.006 123.785 354.38 124.885C352.994 125.825 351.4 126.67 349.854 127.323C349.392 127.515 349.248 127.594 349.073 127.754C348.93 127.865 348.882 127.897 348.802 127.897C348.499 127.897 347.957 127.021 347.479 125.762C349.025 125.491 350.842 124.742 352.691 123.626C353.838 122.941 355.209 121.905 356.197 120.98C357.074 120.167 357.568 119.562 358.492 118.271ZM351.368 120.741C351.368 120.901 351.145 121.331 350.778 121.921C350.555 122.271 350.492 122.335 350.364 122.335C350.252 122.335 350.252 122.335 349.567 121.873C349.009 121.506 348.308 121.172 347.161 120.773C346.906 120.677 346.826 120.614 346.826 120.502C346.826 120.422 346.953 120.152 347.208 119.721C347.272 119.594 347.336 119.498 347.368 119.418C347.543 119.1 347.623 119.004 347.75 119.004C348.021 119.004 349.217 119.45 350.077 119.865C350.555 120.104 351.161 120.454 351.288 120.55C351.336 120.614 351.368 120.662 351.368 120.741ZM353.057 117.506C353.057 117.681 352.691 118.319 352.308 118.797C352.101 119.052 352.022 119.116 351.91 119.116C351.846 119.116 351.767 119.084 351.671 118.988C350.683 118.127 349.742 117.522 348.722 117.123C348.563 117.06 348.499 116.996 348.499 116.9C348.499 116.837 348.515 116.789 348.595 116.661C349.36 115.498 349.392 115.45 349.567 115.45C349.886 115.45 351.209 116.087 352.117 116.693C352.882 117.203 353.057 117.347 353.057 117.506ZM368.389 125.666V123.865C367.991 123.849 367.656 123.849 367.401 123.849C365.489 123.849 363.768 123.897 363.178 123.961C362.939 123.992 362.779 124.008 362.732 124.008C362.509 124.008 362.477 123.913 362.381 122.255C363.13 122.319 364.134 122.351 366.158 122.351C366.509 122.351 368.007 122.351 368.389 122.335V120.693H367.067C365.6 120.693 364.309 120.709 363.56 120.757C363.226 120.773 363.019 120.789 362.939 120.789C362.764 120.789 362.732 120.789 362.604 120.821C362.524 120.837 362.461 120.837 362.413 120.837C362.269 120.837 362.206 120.789 362.174 120.693C362.126 120.486 362.078 119.976 362.03 119.116C362.843 119.211 363.72 119.227 366.859 119.227C368.644 119.227 369.25 119.211 370.095 119.179C370.047 120.12 370.047 121.156 370.047 123.307C370.047 124.455 370.079 126.909 370.111 127.61C370.111 127.642 370.127 127.69 370.127 127.706C370.127 127.833 370.079 127.929 369.999 127.961C369.919 128.009 369.409 128.041 368.963 128.041C368.374 128.041 368.374 128.025 368.374 127.626C368.374 127.61 368.374 127.578 368.374 127.499V127.18C367.816 127.164 367.401 127.164 367.114 127.164C364.628 127.164 362.795 127.228 362.285 127.307C362.238 127.323 362.206 127.323 362.19 127.323C361.935 127.323 361.919 127.228 361.823 125.586C362.54 125.65 363.72 125.682 365.6 125.682C365.935 125.682 368.007 125.666 368.389 125.666ZM384.373 117.554C384.548 118.143 384.692 118.462 385.106 119.275C385.186 119.434 385.218 119.546 385.218 119.642C385.218 119.801 385.154 119.912 384.947 120.199C384.07 121.347 383.13 122.271 381.712 123.371C380.118 124.614 378.763 125.443 376.851 126.351C375.623 126.925 375.56 126.957 375.368 127.132C375.241 127.26 375.177 127.292 375.082 127.292C374.938 127.292 374.811 127.164 374.572 126.813C374.253 126.335 373.95 125.682 373.775 125.124C375.384 124.757 377.313 123.897 379.178 122.717C381.632 121.172 383.178 119.642 384.373 117.554ZM373.791 117.649C373.791 117.506 374.093 117.06 374.492 116.597C374.763 116.295 374.874 116.215 375.018 116.215C375.321 116.231 376.516 116.996 377.504 117.793C378.11 118.287 378.301 118.494 378.301 118.653C378.301 118.765 378.014 119.195 377.632 119.626C377.281 120.024 377.106 120.167 376.978 120.167C376.867 120.167 376.867 120.167 376.213 119.546C375.799 119.148 374.97 118.478 374.556 118.223C373.998 117.857 373.998 117.857 373.886 117.793C373.823 117.745 373.791 117.697 373.791 117.649Z" fill="#FBFDFF"/>
<path d="M280.532 244.407C280.468 244.407 280.436 244.375 280.373 244.279C280.054 243.673 279.703 243.211 279.193 242.669C279.098 242.574 279.098 242.574 279.098 242.526C279.098 242.43 279.193 242.335 279.464 242.127C279.719 241.952 279.815 241.888 279.91 241.888C280.038 241.888 280.197 242.016 280.596 242.446C281.106 243.004 281.472 243.514 281.472 243.642C281.472 243.737 281.424 243.801 281.233 243.96C280.883 244.263 280.659 244.407 280.532 244.407ZM283.098 242.622C283.098 242.717 282.97 242.829 282.62 243.084C282.429 243.227 282.269 243.307 282.189 243.307C282.142 243.307 282.094 243.275 282.03 243.163C281.695 242.59 281.313 242.08 280.835 241.602C280.787 241.554 280.755 241.506 280.755 241.474C280.755 241.362 281.424 240.884 281.568 240.9C281.695 240.916 281.743 240.932 281.919 241.092C282.397 241.538 283.098 242.43 283.098 242.622ZM274.332 248.439C271.75 248.455 270.874 248.455 269.647 248.502C269.471 248.502 269.36 248.502 269.296 248.502C269.232 248.502 269.184 248.502 269.153 248.518C269.089 248.518 269.041 248.518 269.009 248.518C268.85 248.518 268.738 248.439 268.706 248.263C268.627 247.865 268.579 247.355 268.579 246.622C269.535 246.717 271.734 246.781 274.747 246.781C277.456 246.781 280.58 246.733 281.074 246.686C281.138 246.686 281.185 246.686 281.217 246.686C281.44 246.686 281.44 246.702 281.44 247.753C281.44 248.455 281.409 248.534 281.185 248.534C281.169 248.534 281.122 248.534 281.074 248.534C280.341 248.502 280.038 248.502 276.293 248.455C276.229 249.666 276.165 250.176 275.958 250.909C275.464 252.71 274.524 253.969 272.93 254.957C272.484 255.244 272.133 255.403 271.989 255.403C271.91 255.403 271.846 255.372 271.719 255.244C271.145 254.654 270.954 254.511 270.38 254.224C273.201 252.901 274.237 251.387 274.332 248.439ZM270.491 242.972C270.81 243.02 270.922 243.02 271.288 243.036C271.655 243.052 271.974 243.068 272.149 243.068C272.962 243.116 273.201 243.116 274.253 243.116C276.659 243.116 277.807 243.084 278.667 242.988C278.683 242.988 278.715 242.988 278.747 242.988C278.97 242.988 279.018 243.1 279.018 243.594C279.018 243.626 279.018 243.769 279.018 243.928C279.018 244.024 279.018 244.183 279.002 244.375C279.002 244.805 278.97 244.853 278.667 244.853C278.492 244.853 277.329 244.821 276.213 244.805C275.974 244.789 275.575 244.789 275.002 244.789C272.962 244.789 271.527 244.821 271.017 244.885C270.969 244.901 270.922 244.901 270.89 244.901C270.73 244.901 270.651 244.837 270.619 244.693C270.555 244.359 270.491 243.594 270.491 242.972ZM284.916 247.61C286.206 247.737 287.338 247.769 290.669 247.769C293.586 247.769 295.259 247.737 296.869 247.626C296.916 247.626 297.012 247.626 297.076 247.626C297.554 247.626 297.554 247.642 297.554 248.917C297.554 249.57 297.506 249.682 297.235 249.682C297.235 249.682 297.187 249.682 297.171 249.682C296.12 249.634 295.53 249.634 290.924 249.634C289.235 249.634 288.39 249.65 286.924 249.698C286.812 249.698 286.685 249.698 286.461 249.698C285.951 249.698 285.872 249.714 285.569 249.762C285.489 249.762 285.426 249.777 285.394 249.777C285.218 249.777 285.107 249.698 285.075 249.554C284.979 249.156 284.916 248.343 284.916 247.61ZM305.158 245.666C304.424 246.622 303.5 247.562 302.432 248.439C301.954 248.821 301.699 248.981 301.572 248.981C301.444 248.981 301.428 248.981 301.125 248.662C300.838 248.375 300.44 248.088 299.994 247.849C301.699 246.813 302.719 245.889 303.707 244.502C304.377 243.562 304.871 242.637 305.126 241.761C306.815 242.382 307.213 242.59 307.213 242.813C307.213 242.892 307.166 242.956 307.006 243.068C306.847 243.179 306.64 243.466 306.209 244.12C306.353 244.12 306.369 244.12 306.496 244.12C307.054 244.136 307.453 244.136 307.548 244.136C309.094 244.136 309.493 244.104 309.987 243.912C310.114 243.865 310.162 243.849 310.258 243.849C310.481 243.849 310.704 244.024 311.198 244.614C311.596 245.06 311.708 245.251 311.708 245.427C311.708 245.57 311.66 245.65 311.485 245.825C311.357 245.952 311.166 246.255 310.927 246.717C309.429 249.443 308.313 250.941 306.512 252.567C305.094 253.857 302.847 255.372 302.353 255.372C302.209 255.372 302.082 255.308 301.954 255.18C301.476 254.718 301.078 254.431 300.615 254.24C302.815 253.172 304.52 251.977 306.034 250.463C305.923 250.351 305.923 250.351 305.572 249.985C305.237 249.634 304.871 249.331 304.058 248.726C303.962 248.646 303.93 248.598 303.93 248.534C303.93 248.455 304.138 248.216 304.695 247.642C304.966 247.371 305.03 247.323 305.126 247.323C305.381 247.323 306.321 248.088 307.277 249.06C308.233 247.817 308.919 246.638 309.301 245.618C307.484 245.65 307.484 245.65 305.158 245.666ZM320.585 252.391L320.426 248.439C319.47 249.698 318.322 250.797 316.92 251.786C316.011 252.423 314.704 253.172 314.481 253.172C314.338 253.172 314.306 253.14 313.955 252.71C313.621 252.28 313.382 252.041 312.999 251.77C314.497 251.18 315.438 250.638 316.649 249.682C317.86 248.726 318.545 248.04 319.565 246.717C317.223 246.717 315.549 246.765 314.864 246.861C314.72 246.893 314.641 246.893 314.577 246.893C314.354 246.893 314.29 246.861 314.226 246.717C314.147 246.462 314.083 245.809 314.067 244.932C314.8 245.028 317.207 245.108 319.215 245.108H320.283L320.251 244.359C320.203 243.259 320.171 242.861 320.028 242.191C320.968 242.223 321.653 242.287 322.084 242.398C322.227 242.43 322.291 242.51 322.291 242.622C322.291 242.733 322.275 242.765 322.179 242.924C322.084 243.084 322.052 243.259 322.052 243.626C322.052 243.865 322.052 244.152 322.068 244.438L322.099 245.092C324.904 245.044 325.239 245.044 325.574 245.028C325.733 245.012 325.733 245.012 325.845 245.012C326.211 245.012 326.243 245.092 326.243 245.921C326.243 246.749 326.227 246.797 325.924 246.797C325.893 246.797 325.877 246.797 325.829 246.797C325.781 246.797 325.685 246.797 325.558 246.781C325.478 246.781 325.478 246.781 324.968 246.781C324.028 246.765 322.737 246.733 322.179 246.733L322.354 250.654C322.354 250.797 322.37 250.877 322.434 251.706C322.482 252.327 322.482 252.407 322.482 252.678C322.482 254.431 321.876 254.941 319.773 254.941C319.151 254.941 318.816 254.909 318.705 254.862C318.545 254.782 318.514 254.734 318.386 254.24C318.274 253.873 318.099 253.443 317.828 252.917C318.593 253.061 319.119 253.124 319.677 253.124C320.458 253.124 320.601 253.013 320.601 252.439C320.601 252.439 320.601 252.407 320.585 252.391ZM340.753 240.837C341.709 240.837 342.458 241.586 342.458 242.542C342.458 243.498 341.709 244.247 340.753 244.247C339.797 244.247 339.048 243.498 339.048 242.542C339.048 241.586 339.797 240.837 340.753 240.837ZM340.753 241.697C340.291 241.697 339.908 242.08 339.908 242.542C339.908 243.004 340.291 243.387 340.753 243.387C341.199 243.387 341.598 243.004 341.598 242.542C341.598 242.08 341.215 241.697 340.753 241.697ZM336.928 245.427C335.685 245.442 335.685 245.442 333.884 245.442C331.031 245.458 329.023 245.554 328.513 245.697C328.497 245.713 328.481 245.713 328.465 245.713C328.162 245.713 328.067 245.187 328.019 243.546C328.8 243.657 329.82 243.705 332.179 243.705C334.314 243.705 336.816 243.657 337.215 243.61C337.502 243.578 337.597 243.562 337.884 243.45C337.964 243.418 337.996 243.418 338.06 243.418C338.33 243.418 338.665 243.673 339.175 244.279C339.478 244.662 339.542 244.757 339.542 244.932C339.542 245.044 339.494 245.14 339.382 245.283C339.223 245.474 339.207 245.522 338.856 246.638C337.964 249.443 336.195 251.961 333.804 253.81C332.848 254.543 331.94 255.101 331.7 255.101C331.525 255.101 331.493 255.085 331.127 254.718C330.696 254.288 330.362 254.033 329.931 253.81C332.274 252.63 333.549 251.658 334.776 250.096C335.876 248.71 336.561 247.212 336.928 245.427ZM348.331 248.247C345.749 248.263 344.873 248.279 343.646 248.311C343.47 248.327 343.359 248.327 343.295 248.327C343.231 248.327 343.184 248.327 343.152 248.343C343.088 248.343 343.04 248.343 343.008 248.343C342.849 248.343 342.737 248.263 342.705 248.072C342.626 247.69 342.578 247.164 342.578 246.431C343.279 246.51 343.423 246.51 345.032 246.542C347.12 246.574 348.379 246.59 348.809 246.59C351.471 246.59 354.579 246.542 355.073 246.494C355.137 246.494 355.184 246.494 355.216 246.494C355.439 246.494 355.439 246.51 355.439 247.562C355.439 248.263 355.408 248.343 355.184 248.343C355.169 248.343 355.121 248.343 355.073 248.343C354.34 248.311 354.037 248.311 350.292 248.263C350.228 249.475 350.164 249.985 349.957 250.718C349.463 252.519 348.523 253.778 346.929 254.766C346.483 255.053 346.132 255.212 345.989 255.212C345.909 255.212 345.845 255.18 345.718 255.053C345.144 254.479 344.953 254.32 344.379 254.033C347.2 252.71 348.236 251.196 348.331 248.247ZM344.49 242.781C345.176 242.861 347.248 242.924 349.208 242.924C350.738 242.924 352.411 242.877 353.081 242.797C353.097 242.797 353.129 242.797 353.16 242.797C353.384 242.797 353.431 242.908 353.431 243.402C353.431 243.434 353.431 243.578 353.431 243.737C353.431 243.833 353.431 243.992 353.415 244.183C353.415 244.614 353.384 244.662 353.081 244.662C353.033 244.662 352.985 244.662 352.889 244.662C352.459 244.646 349.543 244.598 348.825 244.598C346.913 244.598 345.526 244.63 345.016 244.693C344.969 244.709 344.921 244.709 344.889 244.709C344.729 244.709 344.65 244.646 344.618 244.502C344.554 244.167 344.49 243.402 344.49 242.781ZM361.224 251.483V250.16C359.964 250.957 358.307 251.833 358.02 251.833C357.861 251.833 357.861 251.833 357.558 251.499C357.287 251.196 356.968 250.909 356.57 250.622C358.674 249.937 360.761 248.71 362.642 247.052C363.407 246.383 363.758 245.968 364.188 245.315C365.033 245.873 365.67 246.478 365.67 246.717C365.67 246.813 365.622 246.861 365.479 246.925C365.256 247.02 365.112 247.148 364.634 247.562C364.299 247.865 363.662 248.391 362.945 248.933V251.483C362.945 252.869 362.977 254.288 363.024 254.957C363.024 255.021 363.024 255.101 363.024 255.133C363.024 255.388 362.865 255.419 361.861 255.419C361.224 255.419 361.16 255.403 361.16 255.228C361.16 255.212 361.16 255.196 361.16 255.164C361.16 255.133 361.16 255.117 361.16 255.117C361.16 255.069 361.16 254.957 361.176 254.798C361.208 254.399 361.224 252.997 361.224 251.483ZM374.935 249.985C376.577 248.598 377.724 247.339 378.84 245.761C373.294 245.841 373.294 245.841 371.445 245.921C370.122 245.968 370.122 245.968 369.628 246.064C369.548 246.064 369.469 246.08 369.437 246.08C369.245 246.08 369.134 245.984 369.054 245.777C368.895 245.331 368.799 244.741 368.767 243.944C369.867 244.072 371.54 244.136 373.565 244.136C375.828 244.136 377.9 244.104 378.792 244.056C379.19 244.024 379.35 243.992 379.621 243.897C379.764 243.849 379.844 243.833 379.955 243.833C380.274 243.833 380.593 244.104 381.135 244.869C381.438 245.299 381.581 245.586 381.581 245.761C381.581 245.937 381.549 245.968 381.278 246.16C381.039 246.319 380.912 246.462 380.386 247.1C378.951 248.869 378.059 249.777 376.226 251.26C377.182 252.216 377.884 253.077 377.884 253.268C377.884 253.443 377.676 253.682 377.182 254.081C376.832 254.367 376.561 254.527 376.449 254.527C376.354 254.527 376.274 254.479 376.162 254.336C375.174 253.013 374.855 252.63 374.011 251.786C372.991 250.75 372.943 250.718 371.158 249.315C371.078 249.267 371.046 249.188 371.046 249.108C371.046 248.981 371.317 248.662 371.748 248.247C372.003 248.04 372.13 247.945 372.226 247.945C372.29 247.945 372.353 247.961 372.449 248.024C373.118 248.407 374.011 249.124 374.935 249.985ZM389.901 246.558V250.064C389.901 252.072 389.932 253.555 389.996 254.638C389.996 254.67 389.996 254.734 389.996 254.75C389.996 254.925 389.948 254.989 389.789 255.005C389.582 255.053 388.912 255.085 388.387 255.085C387.892 255.085 387.845 255.053 387.845 254.782C387.845 254.766 387.845 254.734 387.845 254.702C387.908 253.889 387.94 252.072 387.94 250.064V247.961C386.857 248.662 386.331 248.981 385.406 249.459C384.259 250.064 383.701 250.303 383.494 250.303C383.366 250.303 383.271 250.256 383.159 250.128C382.697 249.602 382.442 249.395 381.82 248.965C383.86 248.216 385.024 247.658 386.442 246.765C388.195 245.666 390.028 244.136 391.064 242.908C391.287 242.653 391.383 242.51 391.59 242.159C392.594 242.829 393.311 243.498 393.311 243.801C393.311 243.897 393.247 243.976 393.056 244.056C392.769 244.183 392.658 244.263 391.909 244.917C391.207 245.538 390.522 246.096 389.901 246.558ZM403.036 249.347C404.279 250.176 405.124 250.829 406.112 251.738C407.132 252.662 407.754 253.332 407.754 253.507C407.754 253.65 407.547 253.905 407.052 254.383C406.686 254.734 406.527 254.846 406.415 254.846C406.351 254.846 406.272 254.814 406.176 254.734C406.001 254.527 406.001 254.527 405.267 253.698C404.391 252.71 403.196 251.674 401.809 250.67C400.757 251.77 399.339 252.965 398.191 253.762C397.283 254.383 396.422 254.862 396.231 254.862C396.072 254.862 396.056 254.846 395.673 254.399C395.45 254.16 395.083 253.842 394.685 253.539C396.518 252.71 397.872 251.786 399.387 250.399C401.028 248.901 402.112 247.514 403.387 245.315C398 245.347 398 245.347 397.123 245.442C396.932 245.458 396.9 245.458 396.868 245.458C396.693 245.458 396.597 245.379 396.566 245.203C396.486 244.693 396.454 244.215 396.454 243.371C397.538 243.514 399.227 243.578 401.538 243.578C402.478 243.578 403.467 243.546 403.992 243.498C404.2 243.466 404.232 243.466 404.566 243.355C404.63 243.323 404.662 243.323 404.757 243.323C405.028 243.323 405.315 243.546 405.698 244.056C406.001 244.486 406.176 244.805 406.176 244.996C406.176 245.187 406.128 245.251 405.714 245.634C405.459 245.873 405.347 246.016 404.853 246.813C404.375 247.61 403.642 248.63 403.036 249.347ZM409.682 242.797C409.682 242.877 409.491 243.068 409.188 243.259C409.077 243.339 408.949 243.418 408.901 243.45C408.885 243.45 408.869 243.45 408.822 243.466C408.79 243.482 408.79 243.482 408.774 243.498C408.726 243.498 408.678 243.45 408.614 243.339C408.136 242.59 407.802 242.143 407.419 241.777C407.371 241.745 407.371 241.745 407.323 241.665C407.323 241.538 408.009 241.06 408.152 241.076C408.264 241.076 408.312 241.107 408.487 241.267C408.758 241.506 409.284 242.127 409.555 242.526C409.587 242.574 409.634 242.653 409.682 242.797ZM407.116 244.582C407.052 244.582 407.021 244.55 406.957 244.454C406.59 243.801 406.287 243.387 405.777 242.845C405.682 242.749 405.682 242.749 405.682 242.701C405.682 242.606 405.777 242.51 406.048 242.303C406.287 242.127 406.415 242.064 406.495 242.064C406.622 242.064 406.797 242.207 407.18 242.622C407.69 243.195 408.057 243.705 408.057 243.833C408.057 244.008 407.339 244.582 407.116 244.582ZM294.962 277.088C294.819 277.088 294.819 277.088 294.404 276.243C293.942 275.255 293.305 274.203 292.827 273.598C292.747 273.502 292.715 273.422 292.715 273.375C292.715 273.263 292.986 273.024 293.48 272.721C293.863 272.482 294.118 272.355 294.245 272.355C294.325 272.355 294.404 272.402 294.516 272.562C295.329 273.566 296.588 275.717 296.588 276.084C296.588 276.18 296.524 276.259 296.317 276.403C295.95 276.658 295.106 277.088 294.962 277.088ZM302.054 272.211C303.839 272.689 304.365 272.912 304.365 273.199C304.365 273.263 304.334 273.343 304.206 273.566C304.015 273.885 303.935 274.092 303.68 274.777C303.106 276.323 302.819 276.992 302.373 277.885C301.337 279.877 300.11 281.407 298.373 282.873C297.576 283.527 296.763 284.069 296.556 284.069C296.429 284.069 296.429 284.069 295.998 283.734C295.759 283.527 295.249 283.272 294.723 283.049C298.022 281.248 300.142 278.762 301.401 275.192C301.799 274.06 302.007 273.088 302.054 272.211ZM316.028 273.582V274.251C316.028 276.53 315.885 278.012 315.582 279.128C315.008 281.152 313.733 282.778 311.853 283.814C311.454 284.037 311.152 284.164 311.04 284.164C310.928 284.164 310.849 284.117 310.737 283.989C310.371 283.527 310.084 283.272 309.526 282.905C310.546 282.523 311.407 281.981 312.108 281.296C312.921 280.499 313.447 279.543 313.733 278.395C313.941 277.487 314.084 275.765 314.084 273.932C314.084 272.642 314.036 272.004 313.925 271.414C314.881 271.43 315.455 271.494 315.949 271.59C316.156 271.637 316.252 271.717 316.252 271.877C316.252 271.956 316.236 272.02 316.188 272.163C316.06 272.514 316.028 272.833 316.028 273.582ZM309.829 273.63V276.323C309.829 276.69 309.845 277.423 309.861 277.869C309.861 278.028 309.877 278.188 309.877 278.252C309.877 278.57 309.653 278.634 308.41 278.634C307.932 278.634 307.837 278.57 307.837 278.299C307.837 278.236 307.837 278.092 307.837 277.981C307.9 276.737 307.932 276.052 307.932 274.921C307.932 273.072 307.884 272.355 307.757 271.526C308.57 271.542 309.319 271.59 309.685 271.669C309.908 271.717 310.036 271.829 310.036 272.02C310.036 272.1 310.02 272.147 309.988 272.243C309.861 272.562 309.829 272.865 309.829 273.63ZM325.663 277.614H322.874C322.3 277.614 321.918 277.646 321.567 277.694C321.519 277.71 321.488 277.71 321.456 277.71C321.312 277.71 321.217 277.63 321.185 277.455C321.105 277.104 321.057 276.594 321.057 275.893C321.599 276.004 322.571 276.052 324.324 276.052C325.775 276.052 325.918 276.036 326.205 275.909C326.269 275.893 326.333 275.877 326.38 275.877C326.651 275.877 326.906 276.02 327.289 276.355C327.623 276.658 327.847 276.977 327.847 277.136C327.847 277.2 327.815 277.279 327.719 277.407C327.528 277.662 327.528 277.662 327.273 279.176C327.082 280.435 326.986 280.945 326.874 281.471C326.858 281.519 326.858 281.519 326.858 281.567C328.277 281.567 328.548 281.551 329.233 281.503C329.265 281.503 329.313 281.503 329.329 281.503C329.552 281.503 329.6 281.662 329.6 282.491C329.6 283.144 329.568 283.24 329.361 283.24C329.281 283.24 329.249 283.24 328.596 283.208C328.07 283.176 326.364 283.16 324.85 283.16C322.38 283.16 320.531 283.208 319.862 283.288C319.814 283.288 319.766 283.288 319.718 283.288C319.495 283.288 319.4 283.24 319.336 283.112C319.272 282.921 319.208 282.459 319.145 281.471C320.26 281.567 320.707 281.582 325.073 281.582C325.105 281.455 325.105 281.439 325.121 281.312C325.328 280.307 325.52 278.969 325.663 277.614ZM331.667 276.61C332.958 276.737 334.09 276.769 337.421 276.769C340.337 276.769 342.011 276.737 343.62 276.626C343.668 276.626 343.764 276.626 343.828 276.626C344.306 276.626 344.306 276.642 344.306 277.917C344.306 278.57 344.258 278.682 343.987 278.682C343.987 278.682 343.939 278.682 343.923 278.682C342.871 278.634 342.282 278.634 337.676 278.634C335.986 278.634 335.142 278.65 333.675 278.698C333.564 278.698 333.436 278.698 333.213 278.698C332.703 278.698 332.623 278.714 332.321 278.762C332.241 278.762 332.177 278.777 332.145 278.777C331.97 278.777 331.858 278.698 331.827 278.554C331.731 278.156 331.667 277.343 331.667 276.61ZM358.305 274.458C358.4 275.207 358.464 275.415 358.799 276.291C358.862 276.451 358.878 276.546 358.878 276.642C358.878 276.849 358.799 276.977 358.496 277.311C357.173 278.777 355.818 279.973 354.193 281.072C352.806 282.013 351.212 282.857 349.667 283.511C349.204 283.702 349.061 283.782 348.886 283.941C348.742 284.053 348.694 284.085 348.615 284.085C348.312 284.085 347.77 283.208 347.292 281.949C348.838 281.678 350.655 280.929 352.503 279.813C353.651 279.128 355.022 278.092 356.01 277.168C356.886 276.355 357.38 275.749 358.305 274.458ZM351.181 276.929C351.181 277.088 350.957 277.518 350.591 278.108C350.368 278.459 350.304 278.522 350.177 278.522C350.065 278.522 350.065 278.522 349.38 278.06C348.822 277.694 348.121 277.359 346.973 276.961C346.718 276.865 346.638 276.801 346.638 276.69C346.638 276.61 346.766 276.339 347.021 275.909C347.085 275.781 347.148 275.686 347.18 275.606C347.356 275.287 347.435 275.192 347.563 275.192C347.834 275.192 349.029 275.638 349.89 276.052C350.368 276.291 350.973 276.642 351.101 276.737C351.149 276.801 351.181 276.849 351.181 276.929ZM352.87 273.693C352.87 273.869 352.503 274.506 352.121 274.984C351.914 275.239 351.834 275.303 351.722 275.303C351.659 275.303 351.579 275.271 351.483 275.176C350.495 274.315 349.555 273.709 348.535 273.311C348.376 273.247 348.312 273.183 348.312 273.088C348.312 273.024 348.328 272.976 348.407 272.849C349.172 271.685 349.204 271.637 349.38 271.637C349.698 271.637 351.021 272.275 351.93 272.881C352.695 273.391 352.87 273.534 352.87 273.693ZM368.202 281.853V280.052C367.804 280.037 367.469 280.037 367.214 280.037C365.301 280.037 363.58 280.084 362.99 280.148C362.751 280.18 362.592 280.196 362.544 280.196C362.321 280.196 362.289 280.1 362.194 278.443C362.943 278.507 363.947 278.538 365.971 278.538C366.321 278.538 367.819 278.538 368.202 278.522V276.881H366.879C365.413 276.881 364.122 276.897 363.373 276.945C363.038 276.961 362.831 276.977 362.751 276.977C362.576 276.977 362.544 276.977 362.417 277.008C362.337 277.024 362.273 277.024 362.225 277.024C362.082 277.024 362.018 276.977 361.986 276.881C361.939 276.674 361.891 276.164 361.843 275.303C362.656 275.399 363.532 275.415 366.672 275.415C368.457 275.415 369.063 275.399 369.907 275.367C369.859 276.307 369.859 277.343 369.859 279.495C369.859 280.642 369.891 283.097 369.923 283.798C369.923 283.83 369.939 283.878 369.939 283.893C369.939 284.021 369.891 284.117 369.812 284.148C369.732 284.196 369.222 284.228 368.776 284.228C368.186 284.228 368.186 284.212 368.186 283.814C368.186 283.798 368.186 283.766 368.186 283.686V283.367C367.628 283.352 367.214 283.352 366.927 283.352C364.441 283.352 362.608 283.415 362.098 283.495C362.05 283.511 362.018 283.511 362.002 283.511C361.747 283.511 361.731 283.415 361.636 281.774C362.353 281.837 363.532 281.869 365.413 281.869C365.748 281.869 367.819 281.853 368.202 281.853ZM384.186 273.741C384.361 274.331 384.504 274.65 384.919 275.462C384.998 275.622 385.03 275.733 385.03 275.829C385.03 275.988 384.967 276.1 384.759 276.387C383.883 277.534 382.943 278.459 381.524 279.558C379.93 280.802 378.576 281.63 376.663 282.539C375.436 283.112 375.372 283.144 375.181 283.32C375.053 283.447 374.99 283.479 374.894 283.479C374.751 283.479 374.623 283.352 374.384 283.001C374.065 282.523 373.763 281.869 373.587 281.312C375.197 280.945 377.125 280.084 378.99 278.905C381.444 277.359 382.99 275.829 384.186 273.741ZM373.603 273.837C373.603 273.693 373.906 273.247 374.304 272.785C374.575 272.482 374.687 272.402 374.83 272.402C375.133 272.418 376.328 273.183 377.317 273.98C377.922 274.474 378.113 274.682 378.113 274.841C378.113 274.952 377.827 275.383 377.444 275.813C377.093 276.212 376.918 276.355 376.791 276.355C376.679 276.355 376.679 276.355 376.026 275.733C375.611 275.335 374.783 274.666 374.368 274.411C373.81 274.044 373.81 274.044 373.699 273.98C373.635 273.932 373.603 273.885 373.603 273.837Z" fill="#A4AFBC"/>
</svg>
