<svg width="312" height="257" viewBox="0 0 312 257" fill="none" xmlns="http://www.w3.org/2000/svg">
<g clip-path="url(#clip0_6437_180089)">
<g opacity="0.4">
<path opacity="0.8" fill-rule="evenodd" clip-rule="evenodd" d="M155.864 278.976L328.228 209.219L155.864 133.948L155.863 133.948V133.948L-16.5 205.911L155.863 278.976L155.864 278.976V278.976Z" fill="#A4A7AB"/>
<path d="M74.5098 168.311L46.1498 180.202L61.9974 186.728L90.3596 174.836L74.5098 168.311Z" fill="#A4A7AB"/>
<path d="M143.891 156.381L120.471 166.201L133.558 171.59L156.981 161.769L143.891 156.381Z" fill="#A4A7AB"/>
<path d="M211.507 162.088L194.052 169.407L203.806 173.424L221.263 166.104L211.507 162.088Z" fill="#A4A7AB"/>
<path d="M135.245 142.545L106.885 154.435L122.732 160.962L151.095 149.069L135.245 142.545Z" fill="#A4A7AB"/>
<path d="M115.482 171.159L90.3001 181.717L104.372 187.512L129.556 176.952L115.482 171.159Z" fill="#A4A7AB"/>
<path d="M179.583 202.169L163.491 208.916L172.483 212.619L188.576 205.871L179.583 202.169Z" fill="#A4A7AB"/>
<path d="M207.557 202.169L191.465 208.916L200.457 212.619L216.55 205.871L207.557 202.169Z" fill="#A4A7AB"/>
<path d="M258.967 183.615L247.751 188.317L254.018 190.898L265.235 186.195L258.967 183.615Z" fill="#A4A7AB"/>
<path d="M153.079 208.426L136.987 215.173L145.979 218.877L162.072 212.128L153.079 208.426Z" fill="#A4A7AB"/>
<path d="M163.386 216.156L147.294 222.903L156.286 226.607L172.38 219.858L163.386 216.156Z" fill="#A4A7AB"/>
<path d="M172.957 151.372L156.865 158.119L165.857 161.822L181.95 155.074L172.957 151.372Z" fill="#A4A7AB"/>
<path d="M194.699 151.161L173.463 160.065L185.33 164.952L206.568 156.047L194.699 151.161Z" fill="#A4A7AB"/>
<path d="M197.275 188.338L176.039 197.242L187.906 202.129L209.143 193.224L197.275 188.338Z" fill="#A4A7AB"/>
<path d="M231.509 184.289L210.273 193.193L222.14 198.08L243.378 189.175L231.509 184.289Z" fill="#A4A7AB"/>
<path d="M237.029 169.934L215.793 178.837L227.66 183.725L248.898 174.819L237.029 169.934Z" fill="#A4A7AB"/>
<path d="M169.643 143.274L153.551 150.021L162.543 153.724L178.636 146.976L169.643 143.274Z" fill="#A4A7AB"/>
<path d="M81.3016 185.236L65.2096 191.983L74.2019 195.687L90.2951 188.938L81.3016 185.236Z" fill="#A4A7AB"/>
<path d="M105.172 160.294L86.2091 168.244L96.8054 172.608L115.769 164.656L105.172 160.294Z" fill="#A4A7AB"/>
<path d="M119.898 185.146L94.7161 195.704L108.788 201.499L133.972 190.939L119.898 185.146Z" fill="#A4A7AB"/>
<path d="M140.684 193.239L103.629 208.776L124.335 217.303L161.394 201.764L140.684 193.239Z" fill="#A4A7AB"/>
<path d="M188.536 171.522L151.481 187.058L172.188 195.586L209.246 180.047L188.536 171.522Z" fill="#A4A7AB"/>
<path d="M161.289 165.085L130.093 178.164L147.525 185.343L178.723 172.262L161.289 165.085Z" fill="#A4A7AB"/>
<path opacity="0.8" fill-rule="evenodd" clip-rule="evenodd" d="M155.864 278.976L328.228 209.219L155.864 133.948L155.863 133.948V133.948L-16.5 205.911L155.863 278.976L155.864 278.976V278.976Z" fill="url(#paint0_linear_6437_180089)"/>
</g>
<path d="M123.549 206.352L120.766 206.363C120.007 207.375 118.709 208.585 118.39 208.585C118.291 208.585 118.247 208.563 118.027 208.376C117.862 208.233 117.576 208.035 117.213 207.826C117.994 207.397 118.797 206.748 119.402 206.022C120.051 205.263 120.436 204.625 120.821 203.657C121.36 203.833 121.646 203.954 122.009 204.163C122.163 204.251 122.218 204.306 122.218 204.405C122.218 204.493 122.185 204.548 122.086 204.625C121.976 204.702 121.866 204.845 121.58 205.23L123.219 205.241C123.813 205.241 123.923 205.23 124.253 205.109C124.297 205.098 124.33 205.087 124.374 205.087C124.55 205.087 124.737 205.252 125.056 205.659C125.265 205.934 125.32 206.033 125.32 206.154C125.32 206.275 125.287 206.33 125.133 206.484C125.045 206.583 124.902 206.792 124.792 206.979C123.604 209.124 122.46 210.477 120.711 211.786C119.952 212.358 118.951 212.941 118.742 212.941C118.654 212.941 118.577 212.897 118.478 212.787C118.291 212.589 117.994 212.38 117.565 212.149C119.171 211.379 120.293 210.609 121.393 209.498C122.174 208.706 122.724 207.958 123.208 207.045C123.307 206.858 123.373 206.715 123.549 206.352ZM133.166 207.727C128.997 207.782 128.227 207.815 127.446 207.958C127.424 207.958 127.369 207.969 127.358 207.969C127.116 207.969 127.017 207.595 126.94 206.462C127.479 206.55 128.238 206.583 130.284 206.583C132.484 206.583 133.078 206.583 133.287 206.561C133.452 206.55 133.485 206.539 133.705 206.473C133.782 206.44 133.848 206.429 133.914 206.429C134.079 206.429 134.211 206.506 134.387 206.693C134.684 207.034 134.882 207.342 134.882 207.474C134.882 207.595 134.827 207.683 134.695 207.826C134.607 207.903 134.552 208.002 134.343 208.475C133.606 210.092 132.781 211.082 131.483 211.907C130.889 212.292 129.932 212.732 129.712 212.732C129.558 212.732 129.47 212.666 129.283 212.446C128.997 212.105 128.865 211.984 128.557 211.83C129.811 211.456 130.955 210.829 131.769 210.048C132.385 209.454 132.847 208.684 133.166 207.727ZM128.051 203.943C128.766 204.031 129.459 204.053 131.043 204.053C132.187 204.053 132.187 204.053 133.452 203.965C133.496 203.965 133.507 203.965 133.584 203.965C133.727 203.965 133.782 204.075 133.793 204.405C133.793 204.537 133.793 204.658 133.804 204.768C133.804 204.79 133.804 204.812 133.804 204.812C133.804 205.208 133.76 205.318 133.617 205.318C133.573 205.318 133.485 205.307 133.386 205.307C133.177 205.285 132.352 205.263 132.011 205.263C130.361 205.263 129.184 205.285 128.535 205.34C128.502 205.34 128.469 205.34 128.447 205.34C128.161 205.34 128.117 205.175 128.051 203.943ZM139.963 205.362V205.032C139.963 204.427 139.941 204.108 139.886 203.635C140.656 203.657 141.107 203.701 141.382 203.778C141.47 203.8 141.525 203.866 141.525 203.943C141.525 203.998 141.503 204.053 141.459 204.13C141.36 204.295 141.338 204.493 141.338 205.01V205.362H142.746C143.087 205.362 143.307 205.329 143.527 205.252C143.659 205.208 143.725 205.186 143.802 205.186C144 205.186 144.319 205.417 144.682 205.813C144.869 206.022 144.935 206.121 144.935 206.231C144.935 206.308 144.913 206.385 144.847 206.517C144.748 206.704 144.715 206.792 144.583 207.364C144.341 208.365 144.132 208.893 143.681 209.652C142.955 210.906 141.91 211.874 140.612 212.523C140.293 212.677 140.095 212.754 140.018 212.754C139.941 212.754 139.897 212.721 139.809 212.611C139.622 212.369 139.358 212.149 138.94 211.885C139.82 211.511 140.282 211.269 140.799 210.906C141.899 210.136 142.581 209.223 143.021 207.958C143.208 207.397 143.296 207.012 143.34 206.517C142.339 206.495 141.932 206.495 141.052 206.495C140.117 206.495 139.501 206.495 138.137 206.517C138.126 207.199 138.126 207.199 138.126 207.309C138.126 207.584 138.126 207.815 138.137 208.233C138.137 208.255 138.137 208.277 138.137 208.288C138.137 208.387 138.104 208.431 138.016 208.464C137.906 208.486 137.554 208.519 137.279 208.519C136.861 208.519 136.784 208.486 136.784 208.31C136.784 208.255 136.784 208.167 136.795 208.035C136.806 207.903 136.828 206.726 136.828 206.462C136.828 206.11 136.817 205.791 136.784 205.296C137.092 205.34 137.708 205.362 138.412 205.362H139.963ZM148.897 208.2V209.432C148.897 210.114 148.93 211.907 148.952 212.424C148.952 212.446 148.952 212.468 148.952 212.479C148.952 212.578 148.93 212.655 148.875 212.688C148.798 212.754 148.358 212.809 147.951 212.809C147.599 212.809 147.533 212.776 147.533 212.556C147.533 212.545 147.533 212.534 147.533 212.512C147.555 212.226 147.588 209.047 147.588 207.749C147.588 205.219 147.566 204.493 147.467 203.866C148.259 203.91 148.611 203.954 148.93 204.02C149.04 204.042 149.095 204.097 149.095 204.185C149.095 204.251 149.095 204.251 149.051 204.438C149.007 204.57 148.985 204.713 148.974 204.9C148.974 204.922 148.952 205.582 148.919 206.88C149.7 207.1 149.7 207.1 150.151 207.265C151.251 207.65 151.878 207.925 152.857 208.453C152.945 208.508 152.989 208.563 152.989 208.64C152.989 208.75 152.791 209.278 152.615 209.608C152.527 209.795 152.472 209.85 152.406 209.85C152.362 209.85 152.307 209.828 152.23 209.773C151.152 209.058 150.019 208.519 148.897 208.2ZM151.746 206.099C151.702 206.099 151.669 206.077 151.636 206.011C151.416 205.615 151.141 205.241 150.811 204.9C150.756 204.834 150.745 204.834 150.745 204.801C150.745 204.735 150.8 204.669 151.009 204.526C151.163 204.405 151.251 204.361 151.306 204.361C151.405 204.361 151.504 204.449 151.779 204.746C152.142 205.142 152.395 205.483 152.395 205.582C152.395 205.703 151.9 206.099 151.746 206.099ZM153.506 204.867C153.506 204.933 153.429 205.01 153.176 205.186C153.033 205.285 152.934 205.34 152.879 205.34C152.846 205.34 152.824 205.318 152.769 205.241C152.505 204.801 152.252 204.471 151.944 204.163C151.911 204.13 151.889 204.097 151.889 204.075C151.889 203.987 152.329 203.679 152.461 203.679C152.516 203.679 152.582 203.712 152.692 203.811C153.033 204.13 153.506 204.735 153.506 204.867ZM156.203 206.154H156.632C156.632 204.933 156.588 204.295 156.5 203.943C156.698 203.954 156.698 203.954 157.127 203.976C157.259 203.976 157.853 204.075 157.93 204.097C158.007 204.13 158.04 204.174 158.04 204.24C158.04 204.295 158.04 204.295 157.974 204.526C157.919 204.68 157.908 204.911 157.886 206.154C158.161 206.154 158.975 206.154 160.339 206.143C160.339 204.889 160.306 204.394 160.218 203.866C160.812 203.899 161.142 203.932 161.461 203.987C161.692 204.02 161.758 204.064 161.758 204.163C161.758 204.24 161.747 204.273 161.681 204.449C161.648 204.526 161.615 204.867 161.604 205.219C161.604 205.439 161.604 205.879 161.604 206.011C161.604 206.077 161.604 206.077 161.604 206.132C162.715 206.11 163.133 206.099 163.463 206.066C163.507 206.055 163.54 206.055 163.573 206.055C163.628 206.055 163.672 206.077 163.694 206.11C163.727 206.176 163.749 206.44 163.749 206.792C163.749 207.309 163.727 207.364 163.562 207.364C163.54 207.364 163.54 207.364 163.298 207.342C162.924 207.309 162.836 207.309 161.582 207.309C161.516 208.959 161.296 209.839 160.746 210.719C160.273 211.478 159.657 212.039 158.81 212.512C158.513 212.677 158.117 212.831 158.007 212.831C157.908 212.831 157.897 212.82 157.666 212.578C157.424 212.314 157.27 212.204 156.929 211.995C158.513 211.423 159.338 210.774 159.844 209.707C160.152 209.047 160.284 208.398 160.328 207.298C160.053 207.298 160.02 207.298 159.613 207.298C159.514 207.298 159.206 207.298 158.755 207.309C158.557 207.32 158.26 207.32 157.864 207.331C157.864 208.112 157.864 208.112 157.886 209.102C157.886 209.146 157.886 209.223 157.886 209.245C157.886 209.399 157.853 209.454 157.732 209.498C157.6 209.531 157.259 209.564 156.995 209.564C156.61 209.564 156.555 209.531 156.555 209.333C156.555 209.289 156.555 209.223 156.555 209.168C156.599 208.167 156.61 207.991 156.621 207.353C156.049 207.364 155.037 207.43 154.773 207.474C154.751 207.485 154.729 207.485 154.707 207.485C154.619 207.485 154.564 207.441 154.542 207.342C154.487 207.155 154.432 206.627 154.41 206.077C154.971 206.143 155.29 206.154 156.203 206.154ZM164.861 207.507C165.752 207.595 166.533 207.617 168.832 207.617C170.845 207.617 172 207.595 173.111 207.518C173.144 207.518 173.21 207.518 173.254 207.518C173.584 207.518 173.584 207.529 173.584 208.409C173.584 208.86 173.551 208.937 173.364 208.937C173.364 208.937 173.331 208.937 173.32 208.937C172.594 208.904 172.187 208.904 169.008 208.904C167.842 208.904 167.259 208.915 166.247 208.948C166.17 208.948 166.082 208.948 165.928 208.948C165.576 208.948 165.521 208.959 165.312 208.992C165.257 208.992 165.213 209.003 165.191 209.003C165.07 209.003 164.993 208.948 164.971 208.849C164.905 208.574 164.861 208.013 164.861 207.507ZM184.185 204.691C184.185 204.801 183.712 205.175 183.569 205.175C183.525 205.175 183.503 205.153 183.459 205.076C183.162 204.603 182.975 204.35 182.634 203.998C182.59 203.954 182.579 203.943 182.579 203.91C182.579 203.822 183.008 203.492 183.118 203.492C183.217 203.492 183.349 203.602 183.591 203.866C183.91 204.207 184.185 204.592 184.185 204.691ZM182.436 205.934C182.381 205.934 182.359 205.912 182.315 205.846C182.084 205.406 181.853 205.109 181.501 204.735C181.435 204.658 181.435 204.658 181.435 204.625C181.435 204.559 181.49 204.493 181.688 204.35C181.853 204.229 181.941 204.185 181.996 204.185C182.084 204.185 182.205 204.284 182.469 204.57C182.821 204.977 183.074 205.318 183.074 205.417C183.074 205.527 182.579 205.934 182.436 205.934ZM177.266 208.849C177.266 210.224 177.277 210.433 177.365 210.576C177.541 210.84 178.025 210.939 179.081 210.939C180.115 210.939 180.643 210.895 182.183 210.686C182.216 210.675 182.249 210.675 182.282 210.675C182.392 210.675 182.447 210.73 182.469 210.851C182.502 211.027 182.557 211.577 182.557 211.764C182.557 211.929 182.502 212.006 182.348 212.05C182.007 212.127 180.467 212.215 179.213 212.215C177.937 212.215 177.288 212.127 176.771 211.885C176.386 211.698 176.133 211.39 176.045 211.005C175.99 210.741 175.968 210.499 175.968 210.059C175.968 209.949 175.968 209.817 175.968 209.63C175.99 208.475 175.99 208.332 175.99 207.573C175.99 205.67 175.957 204.977 175.858 204.46C177.211 204.57 177.508 204.636 177.508 204.845C177.508 204.9 177.497 204.922 177.442 205.043C177.409 205.12 177.376 205.263 177.343 205.483C177.299 205.813 177.288 206.066 177.288 206.649C177.277 207.078 177.277 207.375 177.277 207.54C179.18 206.979 180.731 206.209 181.369 205.505C181.908 206.176 182.227 206.682 182.227 206.836C182.227 206.935 182.183 206.968 181.963 207.045C181.809 207.1 181.523 207.221 181.094 207.441C179.741 208.09 178.773 208.442 177.266 208.849ZM190.108 208.673C190.966 209.245 191.549 209.685 192.231 210.323C192.935 210.961 193.364 211.423 193.364 211.544C193.364 211.643 193.221 211.819 192.88 212.149C192.627 212.391 192.517 212.468 192.44 212.468C192.396 212.468 192.341 212.446 192.275 212.391C192.154 212.248 192.154 212.248 191.648 211.676C191.043 210.994 190.218 210.268 189.261 209.586C188.535 210.345 187.556 211.17 186.764 211.709C186.137 212.138 185.543 212.468 185.411 212.468C185.301 212.468 185.29 212.457 185.026 212.16C184.872 211.984 184.619 211.764 184.344 211.566C185.609 210.983 186.544 210.356 187.589 209.399C188.722 208.365 189.47 207.408 190.35 205.89C186.632 205.912 186.632 205.912 186.027 205.978C185.895 205.989 185.873 205.989 185.851 205.989C185.73 205.989 185.664 205.934 185.642 205.813C185.587 205.461 185.565 205.131 185.565 204.548C186.313 204.647 187.479 204.691 189.074 204.691C189.723 204.691 190.405 204.669 190.768 204.625C190.911 204.614 190.933 204.603 191.164 204.526C191.208 204.504 191.23 204.504 191.296 204.504C191.483 204.504 191.681 204.658 191.945 205.01C192.154 205.307 192.275 205.538 192.275 205.659C192.275 205.791 192.242 205.835 191.956 206.099C191.78 206.275 191.703 206.363 191.362 206.924C191.032 207.474 190.526 208.167 190.108 208.673Z" fill="#A4AFBC"/>
<path opacity="0.8" fill-rule="evenodd" clip-rule="evenodd" d="M155.826 184.112L256.736 138.246L155.826 92.3798V92.2356L155.667 92.3077L155.508 92.2354V92.3801L54.5977 138.246L155.508 184.112V184.256L155.667 184.184L155.826 184.257V184.112Z" fill="#154ED0"/>
<path opacity="0.8" fill-rule="evenodd" clip-rule="evenodd" d="M155.826 117.124L256.736 71.2575L155.826 25.3916V25.2473L155.667 25.3194L155.508 25.2471V25.3918L54.5977 71.2578L155.508 117.124V117.268L155.667 117.196L155.826 117.268V117.124Z" fill="#00AFF2"/>
<path d="M112.659 59.9652V60.9552C115.739 60.1962 116.025 60.1082 116.278 59.8882C116.377 59.8112 116.454 59.7782 116.542 59.7782C116.707 59.7782 116.971 59.9762 117.246 60.3062C117.543 60.6472 117.697 60.9002 117.697 61.0102C117.697 61.1642 117.675 61.1972 117.411 61.3842C117.29 61.4832 117.257 61.5162 116.729 62.2642C116.399 62.7262 115.662 63.5182 115.244 63.8482C115.112 63.9582 115.046 63.9912 114.969 63.9912C114.903 63.9912 114.859 63.9692 114.782 63.8922C114.54 63.6392 114.32 63.4852 113.891 63.2762C114.826 62.6162 115.607 61.8132 115.893 61.2192L115.453 61.3512C115.409 61.3622 114.485 61.6152 112.659 62.1212V64.1122C112.659 64.6952 112.791 64.9812 113.099 65.1132C113.418 65.2342 113.88 65.2892 114.54 65.2892C115.09 65.2892 115.893 65.2342 116.509 65.1572C116.74 65.1352 116.795 65.1242 116.828 65.1242C117.059 65.1242 117.114 65.3002 117.147 66.1362C117.147 66.1692 117.147 66.1912 117.147 66.1912C117.147 66.2132 117.147 66.2242 117.147 66.2242C117.147 66.3562 117.103 66.4442 117.015 66.4772C116.883 66.5322 116.091 66.5652 114.991 66.5652C113.616 66.5652 112.901 66.4772 112.351 66.2242C111.702 65.9272 111.361 65.3112 111.361 64.4422V62.4842C110.063 62.8582 109.92 62.9132 109.557 63.1002C109.48 63.1332 109.436 63.1552 109.392 63.1552C109.194 63.1552 108.963 62.6492 108.732 61.7692C109.458 61.6922 110.283 61.5382 111.361 61.2742V60.2292C111.361 59.3052 111.339 58.7992 111.262 58.3262C111.779 58.3262 112.373 58.3922 112.681 58.4692C112.78 58.5022 112.846 58.5572 112.846 58.6232C112.846 58.6892 112.846 58.6892 112.758 58.8762C112.692 59.0192 112.659 59.4042 112.659 59.9652ZM118.895 61.8132C119.786 61.9012 120.567 61.9232 122.866 61.9232C124.879 61.9232 126.034 61.9012 127.145 61.8242C127.178 61.8242 127.244 61.8242 127.288 61.8242C127.618 61.8242 127.618 61.8352 127.618 62.7152C127.618 63.1662 127.585 63.2432 127.398 63.2432C127.398 63.2432 127.365 63.2432 127.354 63.2432C126.628 63.2102 126.221 63.2102 123.042 63.2102C121.876 63.2102 121.293 63.2212 120.281 63.2542C120.204 63.2542 120.116 63.2542 119.962 63.2542C119.61 63.2542 119.555 63.2652 119.346 63.2982C119.291 63.2982 119.247 63.3092 119.225 63.3092C119.104 63.3092 119.027 63.2542 119.005 63.1552C118.939 62.8802 118.895 62.3192 118.895 61.8132ZM130.374 58.8652C130.99 58.8762 131.496 58.9422 131.793 59.0412C131.881 59.0742 131.925 59.1402 131.925 59.2282C131.925 59.2722 131.925 59.2942 131.903 59.3822C131.837 59.6242 131.826 59.8002 131.826 60.2402C131.804 62.9242 131.32 64.6402 130.165 66.1032C129.912 66.4112 129.813 66.5102 129.703 66.5102C129.659 66.5102 129.604 66.4882 129.516 66.4442C129.219 66.2572 128.944 66.1582 128.449 66.0482C129.208 65.2782 129.505 64.8712 129.835 64.1232C130.297 63.0892 130.484 62.0442 130.484 60.4712C130.484 59.7452 130.462 59.4152 130.374 58.8652ZM132.97 64.2332V60.1082C132.97 59.5692 132.937 59.1402 132.871 58.6782C134.059 58.7222 134.488 58.8102 134.488 59.0302C134.488 59.0962 134.477 59.1292 134.433 59.2502C134.4 59.3162 134.367 59.4922 134.356 59.6572C134.323 59.9542 134.323 59.9542 134.301 64.7942C135.698 64.0022 136.611 63.2432 137.535 62.0772C137.557 62.6492 137.601 63.0672 137.7 63.3972C137.733 63.4962 137.733 63.5292 137.733 63.5842C137.733 63.7602 137.623 63.9032 137.117 64.3762C136.303 65.1242 135.753 65.5092 134.73 66.0482C134.488 66.1692 134.345 66.2682 134.213 66.3892C134.136 66.4552 134.037 66.4992 133.96 66.4992C133.828 66.4992 133.432 66.2352 133.146 65.9602C132.926 65.7402 132.827 65.5752 132.827 65.4322C132.827 65.3772 132.838 65.3442 132.871 65.2452C132.948 65.0362 132.97 64.8382 132.97 64.2332ZM143.551 62.9792C144.409 63.5512 144.992 63.9912 145.674 64.6292C146.378 65.2672 146.807 65.7292 146.807 65.8502C146.807 65.9492 146.664 66.1252 146.323 66.4552C146.07 66.6972 145.96 66.7742 145.883 66.7742C145.839 66.7742 145.784 66.7522 145.718 66.6972C145.597 66.5542 145.597 66.5542 145.091 65.9822C144.486 65.3002 143.661 64.5742 142.704 63.8922C141.978 64.6512 140.999 65.4762 140.207 66.0152C139.58 66.4442 138.986 66.7742 138.854 66.7742C138.744 66.7742 138.733 66.7632 138.469 66.4662C138.315 66.2902 138.062 66.0702 137.787 65.8722C139.052 65.2892 139.987 64.6622 141.032 63.7052C142.165 62.6712 142.913 61.7142 143.793 60.1962C140.075 60.2182 140.075 60.2182 139.47 60.2842C139.338 60.2952 139.316 60.2952 139.294 60.2952C139.173 60.2952 139.107 60.2402 139.085 60.1192C139.03 59.7672 139.008 59.4372 139.008 58.8542C139.756 58.9532 140.922 58.9972 142.517 58.9972C143.166 58.9972 143.848 58.9752 144.211 58.9312C144.354 58.9202 144.376 58.9092 144.607 58.8322C144.651 58.8102 144.673 58.8102 144.739 58.8102C144.926 58.8102 145.124 58.9642 145.388 59.3162C145.597 59.6132 145.718 59.8442 145.718 59.9652C145.718 60.0972 145.685 60.1412 145.399 60.4052C145.223 60.5812 145.146 60.6692 144.805 61.2302C144.475 61.7802 143.969 62.4732 143.551 62.9792ZM151.853 63.4522C152.986 62.4952 153.778 61.6262 154.548 60.5372C150.72 60.5922 150.72 60.5922 149.444 60.6472C148.531 60.6802 148.531 60.6802 148.19 60.7462C148.135 60.7462 148.08 60.7572 148.058 60.7572C147.926 60.7572 147.849 60.6912 147.794 60.5482C147.684 60.2402 147.618 59.8332 147.596 59.2832C148.355 59.3712 149.51 59.4152 150.907 59.4152C152.469 59.4152 153.899 59.3932 154.515 59.3602C154.79 59.3382 154.9 59.3162 155.087 59.2502C155.186 59.2172 155.241 59.2062 155.318 59.2062C155.538 59.2062 155.758 59.3932 156.132 59.9212C156.341 60.2182 156.44 60.4162 156.44 60.5372C156.44 60.6582 156.418 60.6802 156.231 60.8122C156.066 60.9222 155.978 61.0212 155.615 61.4612C154.625 62.6822 154.009 63.3092 152.744 64.3322C153.404 64.9922 153.888 65.5862 153.888 65.7182C153.888 65.8392 153.745 66.0042 153.404 66.2792C153.162 66.4772 152.975 66.5872 152.898 66.5872C152.832 66.5872 152.777 66.5542 152.7 66.4552C152.018 65.5422 151.798 65.2782 151.215 64.6952C150.511 63.9802 150.478 63.9582 149.246 62.9902C149.191 62.9572 149.169 62.9022 149.169 62.8472C149.169 62.7592 149.356 62.5392 149.653 62.2532C149.829 62.1102 149.917 62.0442 149.983 62.0442C150.027 62.0442 150.071 62.0552 150.137 62.0992C150.599 62.3632 151.215 62.8582 151.853 63.4522ZM160.811 64.8712V63.6172C160.195 63.9912 159.491 64.3432 158.743 64.6622C158.248 64.8712 157.94 64.9812 157.863 64.9812C157.786 64.9812 157.731 64.9592 157.665 64.8822C157.324 64.4972 157.148 64.3432 156.774 64.1122C157.665 63.8482 158.578 63.4742 159.623 62.9352C160.844 62.3192 161.548 61.8022 162.758 60.6582C159.447 60.6582 158.941 60.6692 158.347 60.7572C158.314 60.7682 158.292 60.7682 158.27 60.7682C158.182 60.7682 158.149 60.7242 158.127 60.5922C158.072 60.2622 158.05 59.9542 158.05 59.4922C158.743 59.5802 159.645 59.6242 160.811 59.6352V59.1732C160.811 58.8212 160.778 58.2932 160.734 57.9852C161.339 57.9852 161.746 58.0182 162.043 58.0842C162.197 58.1172 162.274 58.1832 162.274 58.2932C162.274 58.3372 162.263 58.3702 162.23 58.4362C162.164 58.5792 162.12 58.8652 162.12 59.1952V59.6462C163.143 59.6462 163.506 59.6132 163.748 59.4922C163.77 59.4812 163.792 59.4812 163.825 59.4812C163.968 59.4812 164.122 59.6022 164.342 59.8552C164.606 60.1632 164.716 60.3502 164.716 60.4712C164.716 60.5812 164.661 60.6472 164.518 60.7462C164.32 60.8782 164.144 61.0322 163.671 61.4612C163.077 62.0112 162.802 62.2422 162.109 62.7592V65.0912C162.109 65.4322 162.131 66.2132 162.142 66.4552C162.153 66.6312 162.153 66.7412 162.153 66.7852V66.8402C162.153 66.8622 162.153 66.8732 162.153 66.8732C162.153 66.9392 162.131 66.9832 162.087 67.0052C162.01 67.0492 161.658 67.0822 161.361 67.0822C161.35 67.0822 161.317 67.0822 161.284 67.0822C160.8 67.0712 160.778 67.0602 160.767 66.9282C160.767 66.8292 160.767 66.8182 160.789 66.4112C160.8 66.0812 160.811 65.5202 160.811 64.8712ZM162.934 63.4742C162.934 63.3972 163.033 63.2102 163.198 63.0012C163.451 62.6602 163.55 62.5612 163.638 62.5612C163.726 62.5612 163.88 62.6272 164.254 62.8032C164.87 63.1002 165.563 63.5292 165.981 63.8922C166.08 63.9692 166.102 64.0132 166.102 64.0572C166.102 64.1672 166.025 64.2992 165.717 64.7282C165.541 64.9592 165.442 65.0472 165.343 65.0472C165.288 65.0472 165.244 65.0252 165.178 64.9702C164.529 64.4202 163.66 63.8482 163.099 63.6172C162.967 63.5732 162.934 63.5402 162.934 63.4742ZM174.877 60.3282C174.943 60.8452 174.987 60.9882 175.218 61.5932C175.262 61.7032 175.273 61.7692 175.273 61.8352C175.273 61.9782 175.218 62.0662 175.009 62.2972C174.096 63.3092 173.161 64.1342 172.039 64.8932C171.082 65.5422 169.982 66.1252 168.915 66.5762C168.596 66.7082 168.497 66.7632 168.376 66.8732C168.277 66.9502 168.244 66.9722 168.189 66.9722C167.98 66.9722 167.606 66.3672 167.276 65.4982C168.343 65.3112 169.597 64.7942 170.873 64.0242C171.665 63.5512 172.611 62.8362 173.293 62.1982C173.898 61.6372 174.239 61.2192 174.877 60.3282ZM174.36 60.0532C174.316 60.0532 174.294 60.0312 174.25 59.9652C173.997 59.5142 173.777 59.2062 173.436 58.8542C173.381 58.7992 173.37 58.7772 173.37 58.7552C173.37 58.6892 173.436 58.6122 173.623 58.4802C173.799 58.3592 173.865 58.3152 173.931 58.3152C174.019 58.3152 174.129 58.4032 174.404 58.7002C174.745 59.0852 175.009 59.4372 175.009 59.5362C175.009 59.6572 174.514 60.0532 174.36 60.0532ZM169.96 62.0332C169.96 62.1432 169.806 62.4402 169.553 62.8472C169.399 63.0892 169.355 63.1332 169.267 63.1332C169.19 63.1332 169.19 63.1332 168.717 62.8142C168.332 62.5612 167.848 62.3302 167.056 62.0552C166.88 61.9892 166.825 61.9452 166.825 61.8682C166.825 61.8132 166.913 61.6262 167.089 61.3292C167.133 61.2412 167.177 61.1752 167.199 61.1202C167.32 60.9002 167.375 60.8342 167.463 60.8342C167.65 60.8342 168.475 61.1422 169.069 61.4282C169.399 61.5932 169.817 61.8352 169.905 61.9012C169.938 61.9452 169.96 61.9782 169.96 62.0332ZM176.12 58.8102C176.12 58.8872 176.032 58.9642 175.79 59.1402C175.647 59.2392 175.548 59.2942 175.493 59.2942C175.46 59.2942 175.438 59.2832 175.383 59.1952C175.086 58.7112 174.888 58.4582 174.558 58.1172C174.514 58.0842 174.503 58.0512 174.503 58.0402C174.503 57.9412 174.943 57.6332 175.075 57.6332C175.163 57.6332 175.317 57.7542 175.537 57.9962C175.856 58.3482 176.12 58.7222 176.12 58.8102ZM171.126 59.8002C171.126 59.9212 170.873 60.3612 170.609 60.6912C170.466 60.8672 170.411 60.9112 170.334 60.9112C170.29 60.9112 170.235 60.8892 170.169 60.8232C169.487 60.2292 168.838 59.8112 168.134 59.5362C168.024 59.4922 167.98 59.4482 167.98 59.3822C167.98 59.3382 167.991 59.3052 168.046 59.2172C168.574 58.4142 168.596 58.3812 168.717 58.3812C168.937 58.3812 169.85 58.8212 170.477 59.2392C171.005 59.5912 171.126 59.6902 171.126 59.8002ZM180.098 61.7912C180.67 60.8672 181.066 60.0752 181.385 59.2282C181.506 58.8982 181.561 58.6672 181.627 58.2712C182.584 58.6122 183.167 58.9422 183.167 59.1512C183.167 59.2062 183.145 59.2392 183.068 59.3272C182.859 59.5472 182.694 59.8002 182.518 60.1742C181.968 61.3072 181.671 61.8462 181.154 62.6492C181.649 63.0562 182.144 63.5402 182.518 63.9472C182.617 64.0572 182.661 64.1342 182.661 64.2222C182.661 64.3322 182.529 64.5302 182.221 64.8602C181.99 65.1132 181.858 65.2232 181.759 65.2232C181.704 65.2232 181.649 65.1902 181.561 65.0912C180.901 64.3432 180.835 64.2662 180.351 63.7822C179.416 64.9592 178.349 65.9602 177.315 66.6422C176.985 66.8732 176.787 66.9612 176.666 66.9612C176.556 66.9612 176.545 66.9612 176.27 66.6972C176.083 66.5322 175.808 66.3342 175.478 66.1472C176.996 65.3992 178.25 64.3542 179.35 62.8802C178.833 62.4512 178.569 62.2642 177.634 61.6592C177.414 61.5272 177.392 61.5052 177.392 61.4282C177.392 61.3072 177.524 61.1202 177.876 60.7132C177.997 60.5702 178.085 60.5152 178.173 60.5152C178.316 60.5152 179.053 61.0102 180.098 61.7912ZM192.482 59.8332C192.603 60.2402 192.702 60.4602 192.988 61.0212C193.043 61.1312 193.065 61.2082 193.065 61.2742C193.065 61.3842 193.021 61.4612 192.878 61.6592C192.273 62.4512 191.624 63.0892 190.645 63.8482C189.545 64.7062 188.61 65.2782 187.29 65.9052C186.443 66.3012 186.399 66.3232 186.267 66.4442C186.179 66.5322 186.135 66.5542 186.069 66.5542C185.97 66.5542 185.882 66.4662 185.717 66.2242C185.497 65.8942 185.288 65.4432 185.167 65.0582C186.278 64.8052 187.609 64.2112 188.896 63.3972C190.59 62.3302 191.657 61.2742 192.482 59.8332ZM185.178 59.8992C185.178 59.8002 185.387 59.4922 185.662 59.1732C185.849 58.9642 185.926 58.9092 186.025 58.9092C186.234 58.9202 187.059 59.4482 187.741 59.9982C188.159 60.3392 188.291 60.4822 188.291 60.5922C188.291 60.6692 188.093 60.9662 187.829 61.2632C187.587 61.5382 187.466 61.6372 187.378 61.6372C187.301 61.6372 187.301 61.6372 186.85 61.2082C186.564 60.9332 185.992 60.4712 185.706 60.2952C185.321 60.0422 185.321 60.0422 185.244 59.9982C185.2 59.9652 185.178 59.9322 185.178 59.8992ZM197.008 62.4402V63.6832C197.008 64.3542 197.041 66.1472 197.063 66.6642C197.063 66.6862 197.063 66.7082 197.063 66.7192C197.063 66.8182 197.041 66.8952 196.986 66.9282C196.909 66.9942 196.469 67.0492 196.062 67.0492C195.71 67.0492 195.644 67.0162 195.644 66.7962C195.644 66.7852 195.644 66.7742 195.644 66.7522C195.666 66.4662 195.699 63.2982 195.699 61.9892C195.699 59.4592 195.677 58.7442 195.578 58.1062C196.37 58.1612 196.722 58.1942 197.041 58.2602C197.151 58.2932 197.206 58.3482 197.206 58.4362C197.206 58.4912 197.206 58.4912 197.162 58.6782C197.118 58.8102 197.096 58.9642 197.085 59.1402C197.085 59.1622 197.063 59.8222 197.03 61.1202C197.811 61.3402 197.811 61.3402 198.262 61.5052C199.362 61.8902 199.989 62.1762 200.968 62.6932C201.056 62.7592 201.1 62.8142 201.1 62.8802C201.1 62.9902 200.902 63.5182 200.726 63.8482C200.638 64.0352 200.583 64.0902 200.517 64.0902C200.473 64.0902 200.418 64.0682 200.341 64.0132C199.263 63.2982 198.13 62.7702 197.008 62.4402ZM124.954 79.1432C124.855 79.1432 124.855 79.1432 124.569 78.5602C124.25 77.8782 123.81 77.1522 123.48 76.7342C123.425 76.6682 123.403 76.6132 123.403 76.5802C123.403 76.5032 123.59 76.3382 123.931 76.1292C124.195 75.9642 124.371 75.8762 124.459 75.8762C124.514 75.8762 124.569 75.9092 124.646 76.0192C125.207 76.7122 126.076 78.1972 126.076 78.4502C126.076 78.5162 126.032 78.5712 125.889 78.6702C125.636 78.8462 125.053 79.1432 124.954 79.1432ZM129.849 75.7772C131.081 76.1072 131.444 76.2612 131.444 76.4592C131.444 76.5032 131.422 76.5582 131.334 76.7122C131.202 76.9322 131.147 77.0752 130.971 77.5482C130.575 78.6152 130.377 79.0772 130.069 79.6932C129.354 81.0682 128.507 82.1242 127.308 83.1362C126.758 83.5872 126.197 83.9612 126.054 83.9612C125.966 83.9612 125.966 83.9612 125.669 83.7302C125.504 83.5872 125.152 83.4112 124.789 83.2572C127.066 82.0142 128.529 80.2982 129.398 77.8342C129.673 77.0532 129.816 76.3822 129.849 75.7772ZM139.493 76.7232V77.1852C139.493 78.7582 139.394 79.7812 139.185 80.5512C138.789 81.9482 137.909 83.0702 136.611 83.7852C136.336 83.9392 136.127 84.0272 136.05 84.0272C135.973 84.0272 135.918 83.9942 135.841 83.9062C135.588 83.5872 135.39 83.4112 135.005 83.1582C135.709 82.8942 136.303 82.5202 136.787 82.0472C137.348 81.4972 137.711 80.8372 137.909 80.0452C138.052 79.4182 138.151 78.2302 138.151 76.9652C138.151 76.0742 138.118 75.6342 138.041 75.2272C138.701 75.2382 139.097 75.2822 139.438 75.3482C139.581 75.3812 139.647 75.4362 139.647 75.5462C139.647 75.6012 139.636 75.6452 139.603 75.7442C139.515 75.9862 139.493 76.2062 139.493 76.7232ZM135.214 76.7562V78.6152C135.214 78.8682 135.225 79.3742 135.236 79.6822C135.236 79.7922 135.247 79.9022 135.247 79.9462C135.247 80.1662 135.093 80.2102 134.235 80.2102C133.905 80.2102 133.839 80.1662 133.839 79.9792C133.839 79.9352 133.839 79.8362 133.839 79.7592C133.883 78.9012 133.905 78.4282 133.905 77.6472C133.905 76.3712 133.872 75.8762 133.784 75.3042C134.345 75.3152 134.862 75.3482 135.115 75.4032C135.269 75.4362 135.357 75.5132 135.357 75.6452C135.357 75.7002 135.346 75.7332 135.324 75.7992C135.236 76.0192 135.214 76.2282 135.214 76.7562ZM146.143 79.5062H144.218C143.822 79.5062 143.558 79.5282 143.316 79.5612C143.283 79.5722 143.261 79.5722 143.239 79.5722C143.14 79.5722 143.074 79.5172 143.052 79.3962C142.997 79.1542 142.964 78.8022 142.964 78.3182C143.338 78.3952 144.009 78.4282 145.219 78.4282C146.22 78.4282 146.319 78.4172 146.517 78.3292C146.561 78.3182 146.605 78.3072 146.638 78.3072C146.825 78.3072 147.001 78.4062 147.265 78.6372C147.496 78.8462 147.65 79.0662 147.65 79.1762C147.65 79.2202 147.628 79.2752 147.562 79.3632C147.43 79.5392 147.43 79.5392 147.254 80.5842C147.122 81.4532 147.056 81.8052 146.979 82.1682C146.968 82.2012 146.968 82.2012 146.968 82.2342C147.947 82.2342 148.134 82.2232 148.607 82.1902C148.629 82.1902 148.662 82.1902 148.673 82.1902C148.827 82.1902 148.86 82.3002 148.86 82.8722C148.86 83.3232 148.838 83.3892 148.695 83.3892C148.64 83.3892 148.618 83.3892 148.167 83.3672C147.804 83.3452 146.627 83.3342 145.582 83.3342C143.877 83.3342 142.601 83.3672 142.139 83.4222C142.106 83.4222 142.073 83.4222 142.04 83.4222C141.886 83.4222 141.82 83.3892 141.776 83.3012C141.732 83.1692 141.688 82.8502 141.644 82.1682C142.414 82.2342 142.722 82.2452 145.736 82.2452C145.758 82.1572 145.758 82.1462 145.769 82.0582C145.912 81.3652 146.044 80.4412 146.143 79.5062ZM150.287 78.8132C151.178 78.9012 151.959 78.9232 154.258 78.9232C156.271 78.9232 157.426 78.9012 158.537 78.8242C158.57 78.8242 158.636 78.8242 158.68 78.8242C159.01 78.8242 159.01 78.8352 159.01 79.7152C159.01 80.1662 158.977 80.2432 158.79 80.2432C158.79 80.2432 158.757 80.2432 158.746 80.2432C158.02 80.2102 157.613 80.2102 154.434 80.2102C153.268 80.2102 152.685 80.2212 151.673 80.2542C151.596 80.2542 151.508 80.2542 151.354 80.2542C151.002 80.2542 150.947 80.2652 150.738 80.2982C150.683 80.2982 150.639 80.3092 150.617 80.3092C150.496 80.3092 150.419 80.2542 150.397 80.1552C150.331 79.8802 150.287 79.3192 150.287 78.8132ZM168.672 77.3282C168.738 77.8452 168.782 77.9882 169.013 78.5932C169.057 78.7032 169.068 78.7692 169.068 78.8352C169.068 78.9782 169.013 79.0662 168.804 79.2972C167.891 80.3092 166.956 81.1342 165.834 81.8932C164.877 82.5422 163.777 83.1252 162.71 83.5762C162.391 83.7082 162.292 83.7632 162.171 83.8732C162.072 83.9502 162.039 83.9722 161.984 83.9722C161.775 83.9722 161.401 83.3672 161.071 82.4982C162.138 82.3112 163.392 81.7942 164.668 81.0242C165.46 80.5512 166.406 79.8362 167.088 79.1982C167.693 78.6372 168.034 78.2192 168.672 77.3282ZM163.755 79.0332C163.755 79.1432 163.601 79.4402 163.348 79.8472C163.194 80.0892 163.15 80.1332 163.062 80.1332C162.985 80.1332 162.985 80.1332 162.512 79.8142C162.127 79.5612 161.643 79.3302 160.851 79.0552C160.675 78.9892 160.62 78.9452 160.62 78.8682C160.62 78.8132 160.708 78.6262 160.884 78.3292C160.928 78.2412 160.972 78.1752 160.994 78.1202C161.115 77.9002 161.17 77.8342 161.258 77.8342C161.445 77.8342 162.27 78.1422 162.864 78.4282C163.194 78.5932 163.612 78.8352 163.7 78.9012C163.733 78.9452 163.755 78.9782 163.755 79.0332ZM164.921 76.8002C164.921 76.9212 164.668 77.3612 164.404 77.6912C164.261 77.8672 164.206 77.9112 164.129 77.9112C164.085 77.9112 164.03 77.8892 163.964 77.8232C163.282 77.2292 162.633 76.8112 161.929 76.5362C161.819 76.4922 161.775 76.4482 161.775 76.3822C161.775 76.3382 161.786 76.3052 161.841 76.2172C162.369 75.4142 162.391 75.3812 162.512 75.3812C162.732 75.3812 163.645 75.8212 164.272 76.2392C164.8 76.5912 164.921 76.6902 164.921 76.8002ZM175.503 82.4322V81.1892C175.228 81.1782 174.997 81.1782 174.821 81.1782C173.501 81.1782 172.313 81.2112 171.906 81.2552C171.741 81.2772 171.631 81.2882 171.598 81.2882C171.444 81.2882 171.422 81.2222 171.356 80.0782C171.873 80.1222 172.566 80.1442 173.963 80.1442C174.205 80.1442 175.239 80.1442 175.503 80.1332V79.0002H174.59C173.578 79.0002 172.687 79.0112 172.17 79.0442C171.939 79.0552 171.796 79.0662 171.741 79.0662C171.62 79.0662 171.598 79.0662 171.51 79.0882C171.455 79.0992 171.411 79.0992 171.378 79.0992C171.279 79.0992 171.235 79.0662 171.213 79.0002C171.18 78.8572 171.147 78.5052 171.114 77.9112C171.675 77.9772 172.28 77.9882 174.447 77.9882C175.679 77.9882 176.097 77.9772 176.68 77.9552C176.647 78.6042 176.647 79.3192 176.647 80.8042C176.647 81.5962 176.669 83.2902 176.691 83.7742C176.691 83.7962 176.702 83.8292 176.702 83.8402C176.702 83.9282 176.669 83.9942 176.614 84.0162C176.559 84.0492 176.207 84.0712 175.899 84.0712C175.492 84.0712 175.492 84.0602 175.492 83.7852C175.492 83.7742 175.492 83.7522 175.492 83.6972V83.4772C175.107 83.4662 174.821 83.4662 174.623 83.4662C172.907 83.4662 171.642 83.5102 171.29 83.5652C171.257 83.5762 171.235 83.5762 171.224 83.5762C171.048 83.5762 171.037 83.5102 170.971 82.3772C171.466 82.4212 172.28 82.4432 173.578 82.4432C173.809 82.4432 175.239 82.4322 175.503 82.4322ZM186.535 76.8332C186.656 77.2402 186.755 77.4602 187.041 78.0212C187.096 78.1312 187.118 78.2082 187.118 78.2742C187.118 78.3842 187.074 78.4612 186.931 78.6592C186.326 79.4512 185.677 80.0892 184.698 80.8482C183.598 81.7062 182.663 82.2782 181.343 82.9052C180.496 83.3012 180.452 83.3232 180.32 83.4442C180.232 83.5322 180.188 83.5542 180.122 83.5542C180.023 83.5542 179.935 83.4662 179.77 83.2242C179.55 82.8942 179.341 82.4432 179.22 82.0582C180.331 81.8052 181.662 81.2112 182.949 80.3972C184.643 79.3302 185.71 78.2742 186.535 76.8332ZM179.231 76.8992C179.231 76.8002 179.44 76.4922 179.715 76.1732C179.902 75.9642 179.979 75.9092 180.078 75.9092C180.287 75.9202 181.112 76.4482 181.794 76.9982C182.212 77.3392 182.344 77.4822 182.344 77.5922C182.344 77.6692 182.146 77.9662 181.882 78.2632C181.64 78.5382 181.519 78.6372 181.431 78.6372C181.354 78.6372 181.354 78.6372 180.903 78.2082C180.617 77.9332 180.045 77.4712 179.759 77.2952C179.374 77.0422 179.374 77.0422 179.297 76.9982C179.253 76.9652 179.231 76.9322 179.231 76.8992Z" fill="#FBFDFF"/>
<path d="M115.619 127.049C115.575 127.049 115.553 127.027 115.509 126.961C115.289 126.543 115.047 126.224 114.695 125.85C114.629 125.784 114.629 125.784 114.629 125.751C114.629 125.685 114.695 125.619 114.882 125.476C115.058 125.355 115.124 125.311 115.19 125.311C115.278 125.311 115.388 125.399 115.663 125.696C116.015 126.081 116.268 126.433 116.268 126.521C116.268 126.587 116.235 126.631 116.103 126.741C115.861 126.95 115.707 127.049 115.619 127.049ZM117.39 125.817C117.39 125.883 117.302 125.96 117.06 126.136C116.928 126.235 116.818 126.29 116.763 126.29C116.73 126.29 116.697 126.268 116.653 126.191C116.422 125.795 116.158 125.443 115.828 125.113C115.795 125.08 115.773 125.047 115.773 125.025C115.773 124.948 116.235 124.618 116.334 124.629C116.422 124.64 116.455 124.651 116.576 124.761C116.906 125.069 117.39 125.685 117.39 125.817ZM111.34 129.832C109.558 129.843 108.953 129.843 108.106 129.876C107.985 129.876 107.908 129.876 107.864 129.876C107.82 129.876 107.787 129.876 107.765 129.887C107.721 129.887 107.688 129.887 107.666 129.887C107.556 129.887 107.479 129.832 107.457 129.711C107.402 129.436 107.369 129.084 107.369 128.578C108.029 128.644 109.547 128.688 111.626 128.688C113.496 128.688 115.652 128.655 115.993 128.622C116.037 128.622 116.07 128.622 116.092 128.622C116.246 128.622 116.246 128.633 116.246 129.359C116.246 129.843 116.224 129.898 116.07 129.898C116.059 129.898 116.026 129.898 115.993 129.898C115.487 129.876 115.278 129.876 112.693 129.843C112.649 130.679 112.605 131.031 112.462 131.537C112.121 132.78 111.472 133.649 110.372 134.331C110.064 134.529 109.822 134.639 109.723 134.639C109.668 134.639 109.624 134.617 109.536 134.529C109.14 134.122 109.008 134.023 108.612 133.825C110.559 132.912 111.274 131.867 111.34 129.832ZM108.689 126.059C108.909 126.092 108.986 126.092 109.239 126.103C109.492 126.114 109.712 126.125 109.833 126.125C110.394 126.158 110.559 126.158 111.285 126.158C112.946 126.158 113.738 126.136 114.332 126.07C114.343 126.07 114.365 126.07 114.387 126.07C114.541 126.07 114.574 126.147 114.574 126.488C114.574 126.51 114.574 126.609 114.574 126.719C114.574 126.785 114.574 126.895 114.563 127.027C114.563 127.324 114.541 127.357 114.332 127.357C114.211 127.357 113.408 127.335 112.638 127.324C112.473 127.313 112.198 127.313 111.802 127.313C110.394 127.313 109.404 127.335 109.052 127.379C109.019 127.39 108.986 127.39 108.964 127.39C108.854 127.39 108.799 127.346 108.777 127.247C108.733 127.016 108.689 126.488 108.689 126.059ZM118.644 129.26C119.535 129.348 120.316 129.37 122.615 129.37C124.628 129.37 125.783 129.348 126.894 129.271C126.927 129.271 126.993 129.271 127.037 129.271C127.367 129.271 127.367 129.282 127.367 130.162C127.367 130.613 127.334 130.69 127.147 130.69C127.147 130.69 127.114 130.69 127.103 130.69C126.377 130.657 125.97 130.657 122.791 130.657C121.625 130.657 121.042 130.668 120.03 130.701C119.953 130.701 119.865 130.701 119.711 130.701C119.359 130.701 119.304 130.712 119.095 130.745C119.04 130.745 118.996 130.756 118.974 130.756C118.853 130.756 118.776 130.701 118.754 130.602C118.688 130.327 118.644 129.766 118.644 129.26ZM132.615 127.918C132.109 128.578 131.471 129.227 130.734 129.832C130.404 130.096 130.228 130.206 130.14 130.206C130.052 130.206 130.041 130.206 129.832 129.986C129.634 129.788 129.359 129.59 129.051 129.425C130.228 128.71 130.932 128.072 131.614 127.115C132.076 126.466 132.417 125.828 132.593 125.223C133.759 125.652 134.034 125.795 134.034 125.949C134.034 126.004 134.001 126.048 133.891 126.125C133.781 126.202 133.638 126.4 133.341 126.851C133.44 126.851 133.451 126.851 133.539 126.851C133.924 126.862 134.199 126.862 134.265 126.862C135.332 126.862 135.607 126.84 135.948 126.708C136.036 126.675 136.069 126.664 136.135 126.664C136.289 126.664 136.443 126.785 136.784 127.192C137.059 127.5 137.136 127.632 137.136 127.753C137.136 127.852 137.103 127.907 136.982 128.028C136.894 128.116 136.762 128.325 136.597 128.644C135.563 130.525 134.793 131.559 133.55 132.681C132.571 133.572 131.02 134.617 130.679 134.617C130.58 134.617 130.492 134.573 130.404 134.485C130.074 134.166 129.799 133.968 129.48 133.836C130.998 133.099 132.175 132.274 133.22 131.229C133.143 131.152 133.143 131.152 132.901 130.899C132.67 130.657 132.417 130.448 131.856 130.03C131.79 129.975 131.768 129.942 131.768 129.898C131.768 129.843 131.911 129.678 132.296 129.282C132.483 129.095 132.527 129.062 132.593 129.062C132.769 129.062 133.418 129.59 134.078 130.261C134.738 129.403 135.211 128.589 135.475 127.885C134.221 127.907 134.221 127.907 132.615 127.918ZM143.264 132.56L143.154 129.832C142.494 130.701 141.702 131.46 140.734 132.142C140.107 132.582 139.205 133.099 139.051 133.099C138.952 133.099 138.93 133.077 138.688 132.78C138.457 132.483 138.292 132.318 138.028 132.131C139.062 131.724 139.711 131.35 140.547 130.69C141.383 130.03 141.856 129.557 142.56 128.644C140.943 128.644 139.788 128.677 139.315 128.743C139.216 128.765 139.161 128.765 139.117 128.765C138.963 128.765 138.919 128.743 138.875 128.644C138.82 128.468 138.776 128.017 138.765 127.412C139.271 127.478 140.932 127.533 142.318 127.533H143.055L143.033 127.016C143 126.257 142.978 125.982 142.879 125.52C143.528 125.542 144.001 125.586 144.298 125.663C144.397 125.685 144.441 125.74 144.441 125.817C144.441 125.894 144.43 125.916 144.364 126.026C144.298 126.136 144.276 126.257 144.276 126.51C144.276 126.675 144.276 126.873 144.287 127.071L144.309 127.522C146.245 127.489 146.476 127.489 146.707 127.478C146.817 127.467 146.817 127.467 146.894 127.467C147.147 127.467 147.169 127.522 147.169 128.094C147.169 128.666 147.158 128.699 146.949 128.699C146.927 128.699 146.916 128.699 146.883 128.699C146.85 128.699 146.784 128.699 146.696 128.688C146.641 128.688 146.641 128.688 146.289 128.688C145.64 128.677 144.749 128.655 144.364 128.655L144.485 131.361C144.485 131.46 144.496 131.515 144.54 132.087C144.573 132.516 144.573 132.571 144.573 132.758C144.573 133.968 144.155 134.32 142.703 134.32C142.274 134.32 142.043 134.298 141.966 134.265C141.856 134.21 141.834 134.177 141.746 133.836C141.669 133.583 141.548 133.286 141.361 132.923C141.889 133.022 142.252 133.066 142.637 133.066C143.176 133.066 143.275 132.989 143.275 132.593C143.275 132.593 143.275 132.571 143.264 132.56ZM157.183 124.585C157.843 124.585 158.36 125.102 158.36 125.762C158.36 126.422 157.843 126.939 157.183 126.939C156.523 126.939 156.006 126.422 156.006 125.762C156.006 125.102 156.523 124.585 157.183 124.585ZM157.183 125.179C156.864 125.179 156.6 125.443 156.6 125.762C156.6 126.081 156.864 126.345 157.183 126.345C157.491 126.345 157.766 126.081 157.766 125.762C157.766 125.443 157.502 125.179 157.183 125.179ZM154.543 127.753C153.685 127.764 153.685 127.764 152.442 127.764C150.473 127.775 149.087 127.841 148.735 127.94C148.724 127.951 148.713 127.951 148.702 127.951C148.493 127.951 148.427 127.588 148.394 126.455C148.933 126.532 149.637 126.565 151.265 126.565C152.739 126.565 154.466 126.532 154.741 126.499C154.939 126.477 155.005 126.466 155.203 126.389C155.258 126.367 155.28 126.367 155.324 126.367C155.511 126.367 155.742 126.543 156.094 126.961C156.303 127.225 156.347 127.291 156.347 127.412C156.347 127.489 156.314 127.555 156.237 127.654C156.127 127.786 156.116 127.819 155.874 128.589C155.258 130.525 154.037 132.263 152.387 133.539C151.727 134.045 151.1 134.43 150.935 134.43C150.814 134.43 150.792 134.419 150.539 134.166C150.242 133.869 150.011 133.693 149.714 133.539C151.331 132.725 152.211 132.054 153.058 130.976C153.817 130.019 154.29 128.985 154.543 127.753ZM162.414 129.7C160.632 129.711 160.027 129.722 159.18 129.744C159.059 129.755 158.982 129.755 158.938 129.755C158.894 129.755 158.861 129.755 158.839 129.766C158.795 129.766 158.762 129.766 158.74 129.766C158.63 129.766 158.553 129.711 158.531 129.579C158.476 129.315 158.443 128.952 158.443 128.446C158.927 128.501 159.026 128.501 160.137 128.523C161.578 128.545 162.447 128.556 162.744 128.556C164.581 128.556 166.726 128.523 167.067 128.49C167.111 128.49 167.144 128.49 167.166 128.49C167.32 128.49 167.32 128.501 167.32 129.227C167.32 129.711 167.298 129.766 167.144 129.766C167.133 129.766 167.1 129.766 167.067 129.766C166.561 129.744 166.352 129.744 163.767 129.711C163.723 130.547 163.679 130.899 163.536 131.405C163.195 132.648 162.546 133.517 161.446 134.199C161.138 134.397 160.896 134.507 160.797 134.507C160.742 134.507 160.698 134.485 160.61 134.397C160.214 134.001 160.082 133.891 159.686 133.693C161.633 132.78 162.348 131.735 162.414 129.7ZM159.763 125.927C160.236 125.982 161.666 126.026 163.019 126.026C164.075 126.026 165.23 125.993 165.692 125.938C165.703 125.938 165.725 125.938 165.747 125.938C165.901 125.938 165.934 126.015 165.934 126.356C165.934 126.378 165.934 126.477 165.934 126.587C165.934 126.653 165.934 126.763 165.923 126.895C165.923 127.192 165.901 127.225 165.692 127.225C165.659 127.225 165.626 127.225 165.56 127.225C165.263 127.214 163.25 127.181 162.755 127.181C161.435 127.181 160.478 127.203 160.126 127.247C160.093 127.258 160.06 127.258 160.038 127.258C159.928 127.258 159.873 127.214 159.851 127.115C159.807 126.884 159.763 126.356 159.763 125.927ZM171.312 131.933V131.02C170.443 131.57 169.299 132.175 169.101 132.175C168.991 132.175 168.991 132.175 168.782 131.944C168.595 131.735 168.375 131.537 168.1 131.339C169.552 130.866 170.993 130.019 172.291 128.875C172.819 128.413 173.061 128.127 173.358 127.676C173.941 128.061 174.381 128.479 174.381 128.644C174.381 128.71 174.348 128.743 174.249 128.787C174.095 128.853 173.996 128.941 173.666 129.227C173.435 129.436 172.995 129.799 172.5 130.173V131.933C172.5 132.89 172.522 133.869 172.555 134.331C172.555 134.375 172.555 134.43 172.555 134.452C172.555 134.628 172.445 134.65 171.752 134.65C171.312 134.65 171.268 134.639 171.268 134.518C171.268 134.507 171.268 134.496 171.268 134.474C171.268 134.452 171.268 134.441 171.268 134.441C171.268 134.408 171.268 134.331 171.279 134.221C171.301 133.946 171.312 132.978 171.312 131.933ZM180.776 130.899C181.909 129.942 182.701 129.073 183.471 127.984C179.643 128.039 179.643 128.039 178.367 128.094C177.454 128.127 177.454 128.127 177.113 128.193C177.058 128.193 177.003 128.204 176.981 128.204C176.849 128.204 176.772 128.138 176.717 127.995C176.607 127.687 176.541 127.28 176.519 126.73C177.278 126.818 178.433 126.862 179.83 126.862C181.392 126.862 182.822 126.84 183.438 126.807C183.713 126.785 183.823 126.763 184.01 126.697C184.109 126.664 184.164 126.653 184.241 126.653C184.461 126.653 184.681 126.84 185.055 127.368C185.264 127.665 185.363 127.863 185.363 127.984C185.363 128.105 185.341 128.127 185.154 128.259C184.989 128.369 184.901 128.468 184.538 128.908C183.548 130.129 182.932 130.756 181.667 131.779C182.327 132.439 182.811 133.033 182.811 133.165C182.811 133.286 182.668 133.451 182.327 133.726C182.085 133.924 181.898 134.034 181.821 134.034C181.755 134.034 181.7 134.001 181.623 133.902C180.941 132.989 180.721 132.725 180.138 132.142C179.434 131.427 179.401 131.405 178.169 130.437C178.114 130.404 178.092 130.349 178.092 130.294C178.092 130.206 178.279 129.986 178.576 129.7C178.752 129.557 178.84 129.491 178.906 129.491C178.95 129.491 178.994 129.502 179.06 129.546C179.522 129.81 180.138 130.305 180.776 130.899ZM191.105 128.534V130.954C191.105 132.34 191.127 133.363 191.171 134.111C191.171 134.133 191.171 134.177 191.171 134.188C191.171 134.309 191.138 134.353 191.028 134.364C190.885 134.397 190.423 134.419 190.06 134.419C189.719 134.419 189.686 134.397 189.686 134.21C189.686 134.199 189.686 134.177 189.686 134.155C189.73 133.594 189.752 132.34 189.752 130.954V129.502C189.004 129.986 188.641 130.206 188.003 130.536C187.211 130.954 186.826 131.119 186.683 131.119C186.595 131.119 186.529 131.086 186.452 130.998C186.133 130.635 185.957 130.492 185.528 130.195C186.936 129.678 187.739 129.293 188.718 128.677C189.928 127.918 191.193 126.862 191.908 126.015C192.062 125.839 192.128 125.74 192.271 125.498C192.964 125.96 193.459 126.422 193.459 126.631C193.459 126.697 193.415 126.752 193.283 126.807C193.085 126.895 193.008 126.95 192.491 127.401C192.007 127.83 191.534 128.215 191.105 128.534ZM200.171 130.459C201.029 131.031 201.612 131.482 202.294 132.109C202.998 132.747 203.427 133.209 203.427 133.33C203.427 133.429 203.284 133.605 202.943 133.935C202.69 134.177 202.58 134.254 202.503 134.254C202.459 134.254 202.404 134.232 202.338 134.177C202.217 134.034 202.217 134.034 201.711 133.462C201.106 132.78 200.281 132.065 199.324 131.372C198.598 132.131 197.619 132.956 196.827 133.506C196.2 133.935 195.606 134.265 195.474 134.265C195.364 134.265 195.353 134.254 195.089 133.946C194.935 133.781 194.682 133.561 194.407 133.352C195.672 132.78 196.607 132.142 197.652 131.185C198.785 130.151 199.533 129.194 200.413 127.676C196.695 127.698 196.695 127.698 196.09 127.764C195.958 127.775 195.936 127.775 195.914 127.775C195.793 127.775 195.727 127.72 195.705 127.599C195.65 127.247 195.628 126.917 195.628 126.334C196.376 126.433 197.542 126.477 199.137 126.477C199.786 126.477 200.468 126.455 200.831 126.422C200.974 126.4 200.996 126.4 201.227 126.323C201.271 126.301 201.293 126.301 201.359 126.301C201.546 126.301 201.744 126.455 202.008 126.807C202.217 127.104 202.338 127.324 202.338 127.456C202.338 127.588 202.305 127.632 202.019 127.896C201.843 128.061 201.766 128.16 201.425 128.71C201.095 129.26 200.589 129.964 200.171 130.459ZM204.758 125.938C204.758 125.993 204.626 126.125 204.417 126.257C204.34 126.312 204.252 126.367 204.219 126.389C204.208 126.389 204.197 126.389 204.164 126.4C204.142 126.411 204.142 126.411 204.131 126.422C204.098 126.422 204.065 126.389 204.021 126.312C203.691 125.795 203.46 125.487 203.196 125.234C203.163 125.212 203.163 125.212 203.13 125.157C203.13 125.069 203.603 124.739 203.702 124.75C203.779 124.75 203.812 124.772 203.933 124.882C204.12 125.047 204.483 125.476 204.67 125.751C204.692 125.784 204.725 125.839 204.758 125.938ZM202.987 127.17C202.943 127.17 202.921 127.148 202.877 127.082C202.624 126.631 202.415 126.345 202.063 125.971C201.997 125.905 201.997 125.905 201.997 125.872C201.997 125.806 202.063 125.74 202.25 125.597C202.415 125.476 202.503 125.432 202.558 125.432C202.646 125.432 202.767 125.531 203.031 125.817C203.383 126.213 203.636 126.565 203.636 126.653C203.636 126.774 203.141 127.17 202.987 127.17ZM125.579 146.59C125.48 146.59 125.48 146.59 125.194 146.007C124.875 145.325 124.435 144.599 124.105 144.181C124.05 144.115 124.028 144.06 124.028 144.027C124.028 143.95 124.215 143.785 124.556 143.576C124.82 143.411 124.996 143.323 125.084 143.323C125.139 143.323 125.194 143.356 125.271 143.466C125.832 144.159 126.701 145.644 126.701 145.897C126.701 145.963 126.657 146.018 126.514 146.117C126.261 146.293 125.678 146.59 125.579 146.59ZM130.474 143.224C131.706 143.554 132.069 143.708 132.069 143.906C132.069 143.95 132.047 144.005 131.959 144.159C131.827 144.379 131.772 144.522 131.596 144.995C131.2 146.062 131.002 146.524 130.694 147.14C129.979 148.515 129.132 149.571 127.933 150.583C127.383 151.034 126.822 151.408 126.679 151.408C126.591 151.408 126.591 151.408 126.294 151.177C126.129 151.034 125.777 150.858 125.414 150.704C127.691 149.461 129.154 147.745 130.023 145.281C130.298 144.5 130.441 143.829 130.474 143.224ZM140.118 144.17V144.632C140.118 146.205 140.019 147.228 139.81 147.998C139.414 149.395 138.534 150.517 137.236 151.232C136.961 151.386 136.752 151.474 136.675 151.474C136.598 151.474 136.543 151.441 136.466 151.353C136.213 151.034 136.015 150.858 135.63 150.605C136.334 150.341 136.928 149.967 137.412 149.494C137.973 148.944 138.336 148.284 138.534 147.492C138.677 146.865 138.776 145.677 138.776 144.412C138.776 143.521 138.743 143.081 138.666 142.674C139.326 142.685 139.722 142.729 140.063 142.795C140.206 142.828 140.272 142.883 140.272 142.993C140.272 143.048 140.261 143.092 140.228 143.191C140.14 143.433 140.118 143.653 140.118 144.17ZM135.839 144.203V146.062C135.839 146.315 135.85 146.821 135.861 147.129C135.861 147.239 135.872 147.349 135.872 147.393C135.872 147.613 135.718 147.657 134.86 147.657C134.53 147.657 134.464 147.613 134.464 147.426C134.464 147.382 134.464 147.283 134.464 147.206C134.508 146.348 134.53 145.875 134.53 145.094C134.53 143.818 134.497 143.323 134.409 142.751C134.97 142.762 135.487 142.795 135.74 142.85C135.894 142.883 135.982 142.96 135.982 143.092C135.982 143.147 135.971 143.18 135.949 143.246C135.861 143.466 135.839 143.675 135.839 144.203ZM146.768 146.953H144.843C144.447 146.953 144.183 146.975 143.941 147.008C143.908 147.019 143.886 147.019 143.864 147.019C143.765 147.019 143.699 146.964 143.677 146.843C143.622 146.601 143.589 146.249 143.589 145.765C143.963 145.842 144.634 145.875 145.844 145.875C146.845 145.875 146.944 145.864 147.142 145.776C147.186 145.765 147.23 145.754 147.263 145.754C147.45 145.754 147.626 145.853 147.89 146.084C148.121 146.293 148.275 146.513 148.275 146.623C148.275 146.667 148.253 146.722 148.187 146.81C148.055 146.986 148.055 146.986 147.879 148.031C147.747 148.9 147.681 149.252 147.604 149.615C147.593 149.648 147.593 149.648 147.593 149.681C148.572 149.681 148.759 149.67 149.232 149.637C149.254 149.637 149.287 149.637 149.298 149.637C149.452 149.637 149.485 149.747 149.485 150.319C149.485 150.77 149.463 150.836 149.32 150.836C149.265 150.836 149.243 150.836 148.792 150.814C148.429 150.792 147.252 150.781 146.207 150.781C144.502 150.781 143.226 150.814 142.764 150.869C142.731 150.869 142.698 150.869 142.665 150.869C142.511 150.869 142.445 150.836 142.401 150.748C142.357 150.616 142.313 150.297 142.269 149.615C143.039 149.681 143.347 149.692 146.361 149.692C146.383 149.604 146.383 149.593 146.394 149.505C146.537 148.812 146.669 147.888 146.768 146.953ZM150.912 146.26C151.803 146.348 152.584 146.37 154.883 146.37C156.896 146.37 158.051 146.348 159.162 146.271C159.195 146.271 159.261 146.271 159.305 146.271C159.635 146.271 159.635 146.282 159.635 147.162C159.635 147.613 159.602 147.69 159.415 147.69C159.415 147.69 159.382 147.69 159.371 147.69C158.645 147.657 158.238 147.657 155.059 147.657C153.893 147.657 153.31 147.668 152.298 147.701C152.221 147.701 152.133 147.701 151.979 147.701C151.627 147.701 151.572 147.712 151.363 147.745C151.308 147.745 151.264 147.756 151.242 147.756C151.121 147.756 151.044 147.701 151.022 147.602C150.956 147.327 150.912 146.766 150.912 146.26ZM169.297 144.775C169.363 145.292 169.407 145.435 169.638 146.04C169.682 146.15 169.693 146.216 169.693 146.282C169.693 146.425 169.638 146.513 169.429 146.744C168.516 147.756 167.581 148.581 166.459 149.34C165.502 149.989 164.402 150.572 163.335 151.023C163.016 151.155 162.917 151.21 162.796 151.32C162.697 151.397 162.664 151.419 162.609 151.419C162.4 151.419 162.026 150.814 161.696 149.945C162.763 149.758 164.017 149.241 165.293 148.471C166.085 147.998 167.031 147.283 167.713 146.645C168.318 146.084 168.659 145.666 169.297 144.775ZM164.38 146.48C164.38 146.59 164.226 146.887 163.973 147.294C163.819 147.536 163.775 147.58 163.687 147.58C163.61 147.58 163.61 147.58 163.137 147.261C162.752 147.008 162.268 146.777 161.476 146.502C161.3 146.436 161.245 146.392 161.245 146.315C161.245 146.26 161.333 146.073 161.509 145.776C161.553 145.688 161.597 145.622 161.619 145.567C161.74 145.347 161.795 145.281 161.883 145.281C162.07 145.281 162.895 145.589 163.489 145.875C163.819 146.04 164.237 146.282 164.325 146.348C164.358 146.392 164.38 146.425 164.38 146.48ZM165.546 144.247C165.546 144.368 165.293 144.808 165.029 145.138C164.886 145.314 164.831 145.358 164.754 145.358C164.71 145.358 164.655 145.336 164.589 145.27C163.907 144.676 163.258 144.258 162.554 143.983C162.444 143.939 162.4 143.895 162.4 143.829C162.4 143.785 162.411 143.752 162.466 143.664C162.994 142.861 163.016 142.828 163.137 142.828C163.357 142.828 164.27 143.268 164.897 143.686C165.425 144.038 165.546 144.137 165.546 144.247ZM176.128 149.879V148.636C175.853 148.625 175.622 148.625 175.446 148.625C174.126 148.625 172.938 148.658 172.531 148.702C172.366 148.724 172.256 148.735 172.223 148.735C172.069 148.735 172.047 148.669 171.981 147.525C172.498 147.569 173.191 147.591 174.588 147.591C174.83 147.591 175.864 147.591 176.128 147.58V146.447H175.215C174.203 146.447 173.312 146.458 172.795 146.491C172.564 146.502 172.421 146.513 172.366 146.513C172.245 146.513 172.223 146.513 172.135 146.535C172.08 146.546 172.036 146.546 172.003 146.546C171.904 146.546 171.86 146.513 171.838 146.447C171.805 146.304 171.772 145.952 171.739 145.358C172.3 145.424 172.905 145.435 175.072 145.435C176.304 145.435 176.722 145.424 177.305 145.402C177.272 146.051 177.272 146.766 177.272 148.251C177.272 149.043 177.294 150.737 177.316 151.221C177.316 151.243 177.327 151.276 177.327 151.287C177.327 151.375 177.294 151.441 177.239 151.463C177.184 151.496 176.832 151.518 176.524 151.518C176.117 151.518 176.117 151.507 176.117 151.232C176.117 151.221 176.117 151.199 176.117 151.144V150.924C175.732 150.913 175.446 150.913 175.248 150.913C173.532 150.913 172.267 150.957 171.915 151.012C171.882 151.023 171.86 151.023 171.849 151.023C171.673 151.023 171.662 150.957 171.596 149.824C172.091 149.868 172.905 149.89 174.203 149.89C174.434 149.89 175.864 149.879 176.128 149.879ZM187.16 144.28C187.281 144.687 187.38 144.907 187.666 145.468C187.721 145.578 187.743 145.655 187.743 145.721C187.743 145.831 187.699 145.908 187.556 146.106C186.951 146.898 186.302 147.536 185.323 148.295C184.223 149.153 183.288 149.725 181.968 150.352C181.121 150.748 181.077 150.77 180.945 150.891C180.857 150.979 180.813 151.001 180.747 151.001C180.648 151.001 180.56 150.913 180.395 150.671C180.175 150.341 179.966 149.89 179.845 149.505C180.956 149.252 182.287 148.658 183.574 147.844C185.268 146.777 186.335 145.721 187.16 144.28ZM179.856 144.346C179.856 144.247 180.065 143.939 180.34 143.62C180.527 143.411 180.604 143.356 180.703 143.356C180.912 143.367 181.737 143.895 182.419 144.445C182.837 144.786 182.969 144.929 182.969 145.039C182.969 145.116 182.771 145.413 182.507 145.71C182.265 145.985 182.144 146.084 182.056 146.084C181.979 146.084 181.979 146.084 181.528 145.655C181.242 145.38 180.67 144.918 180.384 144.742C179.999 144.489 179.999 144.489 179.922 144.445C179.878 144.412 179.856 144.379 179.856 144.346Z" fill="#FBFDFF"/>
</g>
<defs>
<linearGradient id="paint0_linear_6437_180089" x1="155.864" y1="133.948" x2="155.864" y2="278.976" gradientUnits="userSpaceOnUse">
<stop stop-color="#2B3138" stop-opacity="0"/>
<stop offset="0.71" stop-color="#2B3138"/>
</linearGradient>
<clipPath id="clip0_6437_180089">
<rect width="312" height="256.941" fill="white"/>
</clipPath>
</defs>
</svg>
