<svg xmlns="http://www.w3.org/2000/svg" width="86.765" height="50" viewBox="0 0 86.765 50"><defs><style>.a,.b{fill-rule:evenodd;}.b{fill:#00aff2;}</style></defs><path class="a" d="M23.837,38.206c0,6.918-5,11.794-11.919,11.794S0,45.124,0,38.206c0-6.464,5.716-11,11.918-11s11.919,4.536,11.919,11M5.83,38.234a6.095,6.095,0,1,0,12.176,0,6,6,0,0,0-6.088-5.641A6,6,0,0,0,5.83,38.234"/><path class="a" d="M25.743,28.156h8.472c4.575,0,7.737,2.078,7.737,6.872,0,4.933-2.711,7.094-7.539,7.094H31.278V49.05H25.743V28.156Zm5.535,9.588h.932c2.005,0,3.982,0,3.982-2.549,0-2.633-1.836-2.661-3.982-2.661h-.932Z"/><path class="a" d="M62.928,49.05h-7.05l-5.345-8.036h-.057V49.05H44.813V28.156h8.465c4.305,0,7.57,1.967,7.57,6.429a5.667,5.667,0,0,1-4.767,5.9l6.847,8.563ZM50.476,37.522h.548c1.849,0,3.93-.333,3.93-2.6s-2.081-2.6-3.93-2.6h-.548Z"/><path class="a" d="M86.765,38.206c0,6.918-5,11.794-11.918,11.794S62.928,45.124,62.928,38.206c0-6.464,5.716-11,11.919-11s11.918,4.536,11.918,11m-18.006.028a6.094,6.094,0,1,0,12.175,0,6.105,6.105,0,0,0-12.175,0"/><path class="b" d="M75.2,22.64a11.407,11.407,0,0,0,11.49-11.32,11.491,11.491,0,0,0-22.98,0A11.406,11.406,0,0,0,75.2,22.64"/><path class="b" d="M11.526,22.64a11.406,11.406,0,0,0,11.49-11.32A11.406,11.406,0,0,0,11.526,0,11.407,11.407,0,0,0,.035,11.32,11.407,11.407,0,0,0,11.526,22.64"/><path class="b" d="M29.792,0a11.535,11.535,0,0,0-8.406,3.607,12.08,12.08,0,0,1,0,15.426,11.535,11.535,0,0,0,8.406,3.607A11.407,11.407,0,0,0,41.283,11.32,11.407,11.407,0,0,0,29.792,0"/><path class="b" d="M48.057,0A11.538,11.538,0,0,0,39.65,3.607a12.076,12.076,0,0,1,0,15.426,11.538,11.538,0,0,0,8.407,3.607A11.407,11.407,0,0,0,59.548,11.32,11.407,11.407,0,0,0,48.057,0"/></svg>