<svg width="1440" height="1200" viewBox="0 0 1440 1200" fill="none" xmlns="http://www.w3.org/2000/svg">
<g clip-path="url(#clip0_1_205)">
<rect x="1403.36" y="212.978" width="103.601" height="48.5127" transform="rotate(180 1403.36 212.978)" fill="#B2E7F6"/>
<rect x="1403.36" y="212.978" width="103.601" height="48.5127" transform="rotate(180 1403.36 212.978)" stroke="#FBFDFF" stroke-width="0.5"/>
<rect x="1215.5" y="164.37" width="97.1203" height="42.0316" transform="rotate(-90 1215.5 164.37)" fill="#00AFF2"/>
<rect x="1215.5" y="164.37" width="97.1203" height="42.0316" transform="rotate(-90 1215.5 164.37)" stroke="#FBFDFF" stroke-width="0.5"/>
<rect x="1354.84" y="99.655" width="80.9177" height="64.7152" fill="#00AFF2"/>
<rect x="1354.84" y="99.655" width="80.9177" height="64.7152" stroke="#FBFDFF" stroke-width="0.5"/>
<rect x="1299.76" y="213.073" width="129.525" height="16.1076" fill="#D0F583"/>
<rect x="1299.76" y="213.073" width="129.525" height="16.1076" stroke="#FBFDFF" stroke-width="0.5"/>
<rect x="1170.14" y="164.465" width="129.525" height="97.1202" fill="#00AFF2"/>
<rect x="1170.14" y="164.465" width="129.525" height="97.1202" stroke="#FBFDFF" stroke-width="0.5"/>
<rect x="1131.25" y="174.187" width="22.5886" height="116.563" fill="#154ED0"/>
<rect x="1131.25" y="174.187" width="22.5886" height="116.563" stroke="#FBFDFF" stroke-width="0.5"/>
<rect x="1153.93" y="261.585" width="178.538" height="16.1076" transform="rotate(-90 1153.93 261.585)" fill="#FF7557"/>
<rect x="1153.93" y="261.585" width="178.538" height="16.1076" transform="rotate(-90 1153.93 261.585)" stroke="#FBFDFF" stroke-width="0.5"/>
<rect x="1257.63" y="112.617" width="97.1203" height="51.7532" fill="#154ED0"/>
<rect x="1257.63" y="112.617" width="97.1203" height="51.7532" stroke="#FBFDFF" stroke-width="0.5"/>
<rect x="1215.41" y="135.301" width="29.0696" height="45.2722" transform="rotate(90 1215.41 135.301)" fill="#D0F583"/>
<rect x="1215.41" y="135.301" width="29.0696" height="45.2722" transform="rotate(90 1215.41 135.301)" stroke="#FBFDFF" stroke-width="0.5"/>
<rect x="-0.25" y="-0.25" width="106.341" height="79.714" transform="matrix(1.31134e-07 -1 -1 -1.31134e-07 777.305 218.655)" fill="#00AFF2"/>
<rect x="-0.25" y="-0.25" width="106.341" height="79.714" transform="matrix(1.31134e-07 -1 -1 -1.31134e-07 777.305 218.655)" stroke="#FBFDFF" stroke-width="0.5"/>
<rect x="0.25" y="-0.25" width="85.0394" height="39.7734" transform="matrix(1 1.74846e-07 1.74846e-07 -1 830.727 258.595)" fill="#00AFF2"/>
<rect x="0.25" y="-0.25" width="85.0394" height="39.7734" transform="matrix(1 1.74846e-07 1.74846e-07 -1 830.727 258.595)" stroke="#FBFDFF" stroke-width="0.5"/>
<rect x="-0.25" y="-0.25" width="79.714" height="42.4361" transform="matrix(1.31134e-07 -1 -1 -1.31134e-07 833.222 205.341)" fill="#D0F583"/>
<rect x="-0.25" y="-0.25" width="79.714" height="42.4361" transform="matrix(1.31134e-07 -1 -1 -1.31134e-07 833.222 205.341)" stroke="#FBFDFF" stroke-width="0.5"/>
<rect x="-0.25" y="-0.25" width="79.714" height="34.448" transform="matrix(1.31134e-07 -1 -1 -1.31134e-07 777.305 298.536)" fill="#00AFF2"/>
<rect x="-0.25" y="-0.25" width="79.714" height="34.448" transform="matrix(1.31134e-07 -1 -1 -1.31134e-07 777.305 298.536)" stroke="#FBFDFF" stroke-width="0.5"/>
<rect x="0.25" y="0.25" width="66.4004" height="53.0869" transform="matrix(-2.18557e-07 1 1 2.18557e-07 777.473 218.822)" fill="#FF7557"/>
<rect x="0.25" y="0.25" width="66.4004" height="53.0869" transform="matrix(-2.18557e-07 1 1 2.18557e-07 777.473 218.822)" stroke="#FBFDFF" stroke-width="0.5"/>
<rect x="0.25" y="0.25" width="106.341" height="13.1464" transform="matrix(-4.37114e-08 1 1 4.37114e-08 777.473 99)" fill="#B2E7F6"/>
<rect x="0.25" y="0.25" width="106.341" height="13.1464" transform="matrix(-4.37114e-08 1 1 4.37114e-08 777.473 99)" stroke="#FBFDFF" stroke-width="0.5"/>
<rect x="-0.25" y="0.25" width="23.7972" height="37.1107" transform="matrix(-1 -8.74228e-08 -8.74228e-08 1 801.27 285.389)" fill="#154ED0"/>
<rect x="-0.25" y="0.25" width="23.7972" height="37.1107" transform="matrix(-1 -8.74228e-08 -8.74228e-08 1 801.27 285.389)" stroke="#FBFDFF" stroke-width="0.5"/>
<rect x="-0.25" y="-0.25" width="18.4718" height="95.6902" transform="matrix(1.31134e-07 -1 -1 -1.31134e-07 742.69 237.293)" fill="#D0F583"/>
<rect x="-0.25" y="-0.25" width="18.4718" height="95.6902" transform="matrix(1.31134e-07 -1 -1 -1.31134e-07 742.69 237.293)" stroke="#FBFDFF" stroke-width="0.5"/>
<rect x="-0.25" y="0.25" width="146.282" height="13.1464" transform="matrix(-1 -8.74228e-08 -8.74228e-08 1 923.754 205.508)" fill="#154ED0"/>
<rect x="-0.25" y="0.25" width="146.282" height="13.1464" transform="matrix(-1 -8.74228e-08 -8.74228e-08 1 923.754 205.508)" stroke="#FBFDFF" stroke-width="0.5"/>
<rect x="418.572" y="134.072" width="122.413" height="91.7803" transform="rotate(90 418.572 134.072)" fill="#00AFF2"/>
<rect x="418.572" y="134.072" width="122.413" height="91.7803" transform="rotate(90 418.572 134.072)" stroke="#FBFDFF" stroke-width="0.5"/>
<rect x="305.232" y="118.756" width="97.9068" height="45.8316" transform="rotate(90 305.232 118.756)" fill="#00AFF2"/>
<rect x="305.232" y="118.756" width="97.9068" height="45.8316" transform="rotate(90 305.232 118.756)" stroke="#FBFDFF" stroke-width="0.5"/>
<rect x="204.145" y="134.072" width="91.7803" height="48.8949" transform="rotate(90 204.145 134.072)" fill="#FF7557"/>
<rect x="204.145" y="134.072" width="91.7803" height="48.8949" transform="rotate(90 204.145 134.072)" stroke="#FBFDFF" stroke-width="0.5"/>
<rect x="243.967" y="152.452" width="91.7803" height="39.7051" transform="rotate(90 243.967 152.452)" fill="#00AFF2"/>
<rect x="243.967" y="152.452" width="91.7803" height="39.7051" transform="rotate(90 243.967 152.452)" stroke="#FBFDFF" stroke-width="0.5"/>
<rect x="305.232" y="216.78" width="76.4641" height="61.1479" transform="rotate(90 305.232 216.78)" fill="#154ED0"/>
<rect x="305.232" y="216.78" width="76.4641" height="61.1479" transform="rotate(90 305.232 216.78)" stroke="#FBFDFF" stroke-width="0.5"/>
<rect x="259.283" y="94.25" width="122.413" height="15.1991" transform="rotate(90 259.283 94.25)" fill="#B2E7F6"/>
<rect x="259.283" y="94.25" width="122.413" height="15.1991" transform="rotate(90 259.283 94.25)" stroke="#FBFDFF" stroke-width="0.5"/>
<rect x="176.693" y="225.97" width="27.4521" height="42.7684" fill="#D0F583"/>
<rect x="176.693" y="225.97" width="27.4521" height="42.7684" stroke="#FBFDFF" stroke-width="0.5"/>
<rect x="305.349" y="207.59" width="21.3256" height="110.16" fill="#FF7557"/>
<rect x="305.349" y="207.59" width="21.3256" height="110.16" stroke="#FBFDFF" stroke-width="0.5"/>
<rect x="433.889" y="103.44" width="168.362" height="15.1991" transform="rotate(90 433.889 103.44)" fill="#D0F583"/>
<rect x="433.889" y="103.44" width="168.362" height="15.1991" transform="rotate(90 433.889 103.44)" stroke="#FBFDFF" stroke-width="0.5"/>
<rect x="1273.57" y="465.072" width="122.413" height="91.7803" transform="rotate(90 1273.57 465.072)" fill="#00AFF2"/>
<rect x="1273.57" y="465.072" width="122.413" height="91.7803" transform="rotate(90 1273.57 465.072)" stroke="#FBFDFF" stroke-width="0.5"/>
<rect x="1160.23" y="449.756" width="97.9068" height="45.8316" transform="rotate(90 1160.23 449.756)" fill="#00AFF2"/>
<rect x="1160.23" y="449.756" width="97.9068" height="45.8316" transform="rotate(90 1160.23 449.756)" stroke="#FBFDFF" stroke-width="0.5"/>
<rect x="1059.14" y="465.072" width="91.7803" height="48.8949" transform="rotate(90 1059.14 465.072)" fill="#FF7557"/>
<rect x="1059.14" y="465.072" width="91.7803" height="48.8949" transform="rotate(90 1059.14 465.072)" stroke="#FBFDFF" stroke-width="0.5"/>
<rect x="1098.97" y="483.452" width="91.7803" height="39.7051" transform="rotate(90 1098.97 483.452)" fill="#00AFF2"/>
<rect x="1098.97" y="483.452" width="91.7803" height="39.7051" transform="rotate(90 1098.97 483.452)" stroke="#FBFDFF" stroke-width="0.5"/>
<rect x="1160.23" y="547.78" width="76.4641" height="61.1479" transform="rotate(90 1160.23 547.78)" fill="#154ED0"/>
<rect x="1160.23" y="547.78" width="76.4641" height="61.1479" transform="rotate(90 1160.23 547.78)" stroke="#FBFDFF" stroke-width="0.5"/>
<rect x="1114.28" y="425.25" width="122.413" height="15.1991" transform="rotate(90 1114.28 425.25)" fill="#B2E7F6"/>
<rect x="1114.28" y="425.25" width="122.413" height="15.1991" transform="rotate(90 1114.28 425.25)" stroke="#FBFDFF" stroke-width="0.5"/>
<rect x="1031.69" y="556.97" width="27.4521" height="42.7684" fill="#D0F583"/>
<rect x="1031.69" y="556.97" width="27.4521" height="42.7684" stroke="#FBFDFF" stroke-width="0.5"/>
<rect x="1160.35" y="538.59" width="21.3256" height="110.16" fill="#FF7557"/>
<rect x="1160.35" y="538.59" width="21.3256" height="110.16" stroke="#FBFDFF" stroke-width="0.5"/>
<rect x="1288.89" y="434.44" width="168.362" height="15.1991" transform="rotate(90 1288.89 434.44)" fill="#D0F583"/>
<rect x="1288.89" y="434.44" width="168.362" height="15.1991" transform="rotate(90 1288.89 434.44)" stroke="#FBFDFF" stroke-width="0.5"/>
<g clip-path="url(#clip1_1_205)">
<rect x="180.094" y="615.637" width="105.129" height="49.2321" fill="#B2E7F6"/>
<rect x="180.094" y="615.637" width="105.129" height="49.2321" stroke="#FBFDFF" stroke-width="0.5"/>
<rect x="114.744" y="474.25" width="98.5532" height="42.656" fill="#B2E7F6"/>
<rect x="114.744" y="474.25" width="98.5532" height="42.656" stroke="#FBFDFF" stroke-width="0.5"/>
<rect x="97.8922" y="632.078" width="82.1128" height="65.6725" fill="#154ED0"/>
<rect x="97.8922" y="632.078" width="82.1128" height="65.6725" stroke="#FBFDFF" stroke-width="0.5"/>
<rect x="180.094" y="664.958" width="131.434" height="16.3514" fill="#D0F583"/>
<rect x="180.094" y="664.958" width="131.434" height="16.3514" stroke="#FBFDFF" stroke-width="0.5"/>
<rect x="81.8629" y="516.995" width="131.434" height="98.5532" fill="#00AFF2"/>
<rect x="81.8629" y="516.995" width="131.434" height="98.5532" stroke="#FBFDFF" stroke-width="0.5"/>
<rect x="58.8463" y="497.266" width="22.9275" height="118.282" fill="#00AFF2"/>
<rect x="58.8463" y="497.266" width="22.9275" height="118.282" stroke="#FBFDFF" stroke-width="0.5"/>
<rect x="-0.75" y="615.637" width="180.755" height="16.3514" fill="#FF7557"/>
<rect x="-0.75" y="615.637" width="180.755" height="16.3514" stroke="#FBFDFF" stroke-width="0.5"/>
<rect x="213.386" y="516.995" width="98.5532" height="52.5202" fill="#FF7557"/>
<rect x="213.386" y="516.995" width="98.5532" height="52.5202" stroke="#FBFDFF" stroke-width="0.5"/>
<rect x="213.386" y="569.604" width="29.5037" height="45.944" fill="#154ED0"/>
<rect x="213.386" y="569.604" width="29.5037" height="45.944" stroke="#FBFDFF" stroke-width="0.5"/>
</g>
<rect x="741.358" y="577.978" width="103.601" height="48.5127" transform="rotate(180 741.358 577.978)" fill="#B2E7F6"/>
<rect x="741.358" y="577.978" width="103.601" height="48.5127" transform="rotate(180 741.358 577.978)" stroke="#FBFDFF" stroke-width="0.5"/>
<rect x="553.503" y="529.37" width="97.1203" height="42.0316" transform="rotate(-90 553.503 529.37)" fill="#00AFF2"/>
<rect x="553.503" y="529.37" width="97.1203" height="42.0316" transform="rotate(-90 553.503 529.37)" stroke="#FBFDFF" stroke-width="0.5"/>
<rect x="692.845" y="464.655" width="80.9177" height="64.7152" fill="#00AFF2"/>
<rect x="692.845" y="464.655" width="80.9177" height="64.7152" stroke="#FBFDFF" stroke-width="0.5"/>
<rect x="637.756" y="578.073" width="129.525" height="16.1076" fill="#B2E7F6"/>
<rect x="637.756" y="578.073" width="129.525" height="16.1076" stroke="#FBFDFF" stroke-width="0.5"/>
<rect x="508.136" y="529.465" width="129.525" height="97.1202" fill="#00AFF2"/>
<rect x="508.136" y="529.465" width="129.525" height="97.1202" stroke="#FBFDFF" stroke-width="0.5"/>
<rect x="469.25" y="539.187" width="22.5886" height="116.563" fill="#154ED0"/>
<rect x="469.25" y="539.187" width="22.5886" height="116.563" stroke="#FBFDFF" stroke-width="0.5"/>
<rect x="491.934" y="626.585" width="178.538" height="16.1076" transform="rotate(-90 491.934 626.585)" fill="#FF7557"/>
<rect x="491.934" y="626.585" width="178.538" height="16.1076" transform="rotate(-90 491.934 626.585)" stroke="#FBFDFF" stroke-width="0.5"/>
<rect x="595.63" y="477.617" width="97.1203" height="51.7532" fill="#154ED0"/>
<rect x="595.63" y="477.617" width="97.1203" height="51.7532" stroke="#FBFDFF" stroke-width="0.5"/>
<rect x="553.408" y="500.301" width="29.0696" height="45.2722" transform="rotate(90 553.408 500.301)" fill="#D0F583"/>
<rect x="553.408" y="500.301" width="29.0696" height="45.2722" transform="rotate(90 553.408 500.301)" stroke="#FBFDFF" stroke-width="0.5"/>
<g clip-path="url(#clip2_1_205)">
<rect x="279.572" y="891.072" width="122.413" height="91.7803" transform="rotate(90 279.572 891.072)" fill="#00AFF2"/>
<rect x="279.572" y="891.072" width="122.413" height="91.7803" transform="rotate(90 279.572 891.072)" stroke="#FBFDFF" stroke-width="0.5"/>
<rect x="166.232" y="875.756" width="97.9068" height="45.8316" transform="rotate(90 166.232 875.756)" fill="#B2E7F6"/>
<rect x="166.232" y="875.756" width="97.9068" height="45.8316" transform="rotate(90 166.232 875.756)" stroke="#FBFDFF" stroke-width="0.5"/>
<rect x="65.1449" y="891.072" width="91.7803" height="48.8949" transform="rotate(90 65.1449 891.072)" fill="#FF7557"/>
<rect x="65.1449" y="891.072" width="91.7803" height="48.8949" transform="rotate(90 65.1449 891.072)" stroke="#FBFDFF" stroke-width="0.5"/>
<rect x="104.967" y="909.452" width="91.7803" height="39.7051" transform="rotate(90 104.967 909.452)" fill="#00AFF2"/>
<rect x="104.967" y="909.452" width="91.7803" height="39.7051" transform="rotate(90 104.967 909.452)" stroke="#FBFDFF" stroke-width="0.5"/>
<rect x="166.232" y="973.78" width="76.4641" height="61.1479" transform="rotate(90 166.232 973.78)" fill="#154ED0"/>
<rect x="166.232" y="973.78" width="76.4641" height="61.1479" transform="rotate(90 166.232 973.78)" stroke="#FBFDFF" stroke-width="0.5"/>
<rect x="120.283" y="851.25" width="122.413" height="15.1991" transform="rotate(90 120.283 851.25)" fill="#B2E7F6"/>
<rect x="120.283" y="851.25" width="122.413" height="15.1991" transform="rotate(90 120.283 851.25)" stroke="#FBFDFF" stroke-width="0.5"/>
<rect x="37.6927" y="982.97" width="27.4521" height="42.7684" fill="#D0F583"/>
<rect x="37.6927" y="982.97" width="27.4521" height="42.7684" stroke="#FBFDFF" stroke-width="0.5"/>
<rect x="166.349" y="964.59" width="21.3256" height="110.16" fill="#FF7557"/>
<rect x="166.349" y="964.59" width="21.3256" height="110.16" stroke="#FBFDFF" stroke-width="0.5"/>
<rect x="294.889" y="860.44" width="168.362" height="15.1991" transform="rotate(90 294.889 860.44)" fill="#D0F583"/>
<rect x="294.889" y="860.44" width="168.362" height="15.1991" transform="rotate(90 294.889 860.44)" stroke="#FBFDFF" stroke-width="0.5"/>
<rect x="929.572" y="814.072" width="122.413" height="91.7803" transform="rotate(90 929.572 814.072)" fill="#00AFF2"/>
<rect x="929.572" y="814.072" width="122.413" height="91.7803" transform="rotate(90 929.572 814.072)" stroke="#FBFDFF" stroke-width="0.5"/>
<rect x="816.232" y="798.756" width="97.9068" height="45.8316" transform="rotate(90 816.232 798.756)" fill="#B2E7F6"/>
<rect x="816.232" y="798.756" width="97.9068" height="45.8316" transform="rotate(90 816.232 798.756)" stroke="#FBFDFF" stroke-width="0.5"/>
<rect x="715.145" y="814.072" width="91.7803" height="48.8949" transform="rotate(90 715.145 814.072)" fill="#FF7557"/>
<rect x="715.145" y="814.072" width="91.7803" height="48.8949" transform="rotate(90 715.145 814.072)" stroke="#FBFDFF" stroke-width="0.5"/>
<rect x="754.967" y="832.452" width="91.7803" height="39.7051" transform="rotate(90 754.967 832.452)" fill="#00AFF2"/>
<rect x="754.967" y="832.452" width="91.7803" height="39.7051" transform="rotate(90 754.967 832.452)" stroke="#FBFDFF" stroke-width="0.5"/>
<rect x="816.232" y="896.78" width="76.4641" height="61.1479" transform="rotate(90 816.232 896.78)" fill="#154ED0"/>
<rect x="816.232" y="896.78" width="76.4641" height="61.1479" transform="rotate(90 816.232 896.78)" stroke="#FBFDFF" stroke-width="0.5"/>
<rect x="770.283" y="774.25" width="122.413" height="15.1991" transform="rotate(90 770.283 774.25)" fill="#B2E7F6"/>
<rect x="770.283" y="774.25" width="122.413" height="15.1991" transform="rotate(90 770.283 774.25)" stroke="#FBFDFF" stroke-width="0.5"/>
<rect x="687.693" y="905.97" width="27.4521" height="42.7684" fill="#D0F583"/>
<rect x="687.693" y="905.97" width="27.4521" height="42.7684" stroke="#FBFDFF" stroke-width="0.5"/>
<rect x="816.349" y="887.59" width="21.3256" height="110.16" fill="#FF7557"/>
<rect x="816.349" y="887.59" width="21.3256" height="110.16" stroke="#FBFDFF" stroke-width="0.5"/>
<rect x="944.889" y="783.44" width="168.362" height="15.1991" transform="rotate(90 944.889 783.44)" fill="#D0F583"/>
<rect x="944.889" y="783.44" width="168.362" height="15.1991" transform="rotate(90 944.889 783.44)" stroke="#FBFDFF" stroke-width="0.5"/>
<rect x="-0.25" y="-0.25" width="106.341" height="79.714" transform="matrix(1.31134e-07 -1 -1 -1.31134e-07 512.305 1079.65)" fill="#00AFF2"/>
<rect x="-0.25" y="-0.25" width="106.341" height="79.714" transform="matrix(1.31134e-07 -1 -1 -1.31134e-07 512.305 1079.65)" stroke="#FBFDFF" stroke-width="0.5"/>
<rect x="0.25" y="-0.25" width="85.0394" height="39.7734" transform="matrix(1 1.74846e-07 1.74846e-07 -1 565.727 1119.6)" fill="#00AFF2"/>
<rect x="0.25" y="-0.25" width="85.0394" height="39.7734" transform="matrix(1 1.74846e-07 1.74846e-07 -1 565.727 1119.6)" stroke="#FBFDFF" stroke-width="0.5"/>
<rect x="-0.25" y="-0.25" width="79.714" height="42.4361" transform="matrix(1.31134e-07 -1 -1 -1.31134e-07 568.222 1066.34)" fill="#D0F583"/>
<rect x="-0.25" y="-0.25" width="79.714" height="42.4361" transform="matrix(1.31134e-07 -1 -1 -1.31134e-07 568.222 1066.34)" stroke="#FBFDFF" stroke-width="0.5"/>
<rect x="-0.25" y="-0.25" width="79.714" height="34.448" transform="matrix(1.31134e-07 -1 -1 -1.31134e-07 512.305 1159.54)" fill="#00AFF2"/>
<rect x="-0.25" y="-0.25" width="79.714" height="34.448" transform="matrix(1.31134e-07 -1 -1 -1.31134e-07 512.305 1159.54)" stroke="#FBFDFF" stroke-width="0.5"/>
<rect x="0.25" y="0.25" width="66.4004" height="53.0869" transform="matrix(-2.18557e-07 1 1 2.18557e-07 512.473 1079.82)" fill="#FF7557"/>
<rect x="0.25" y="0.25" width="66.4004" height="53.0869" transform="matrix(-2.18557e-07 1 1 2.18557e-07 512.473 1079.82)" stroke="#FBFDFF" stroke-width="0.5"/>
<rect x="0.25" y="0.25" width="106.341" height="13.1464" transform="matrix(-4.37114e-08 1 1 4.37114e-08 512.473 960)" fill="#B2E7F6"/>
<rect x="0.25" y="0.25" width="106.341" height="13.1464" transform="matrix(-4.37114e-08 1 1 4.37114e-08 512.473 960)" stroke="#FBFDFF" stroke-width="0.5"/>
<rect x="-0.25" y="0.25" width="23.7972" height="37.1107" transform="matrix(-1 -8.74228e-08 -8.74228e-08 1 536.27 1146.39)" fill="#154ED0"/>
<rect x="-0.25" y="0.25" width="23.7972" height="37.1107" transform="matrix(-1 -8.74228e-08 -8.74228e-08 1 536.27 1146.39)" stroke="#FBFDFF" stroke-width="0.5"/>
<rect x="-0.25" y="-0.25" width="18.4718" height="95.6902" transform="matrix(1.31134e-07 -1 -1 -1.31134e-07 477.69 1098.29)" fill="#D0F583"/>
<rect x="-0.25" y="-0.25" width="18.4718" height="95.6902" transform="matrix(1.31134e-07 -1 -1 -1.31134e-07 477.69 1098.29)" stroke="#FBFDFF" stroke-width="0.5"/>
<rect x="-0.25" y="0.25" width="146.282" height="13.1464" transform="matrix(-1 -8.74228e-08 -8.74228e-08 1 658.754 1066.51)" fill="#154ED0"/>
<rect x="-0.25" y="0.25" width="146.282" height="13.1464" transform="matrix(-1 -8.74228e-08 -8.74228e-08 1 658.754 1066.51)" stroke="#FBFDFF" stroke-width="0.5"/>
<g clip-path="url(#clip3_1_205)">
<rect x="1194.09" y="1014.64" width="105.129" height="49.2321" fill="#B2E7F6"/>
<rect x="1194.09" y="1014.64" width="105.129" height="49.2321" stroke="#FBFDFF" stroke-width="0.5"/>
<rect x="1128.74" y="873.25" width="98.5532" height="42.656" fill="#B2E7F6"/>
<rect x="1128.74" y="873.25" width="98.5532" height="42.656" stroke="#FBFDFF" stroke-width="0.5"/>
<rect x="1111.89" y="1031.08" width="82.1128" height="65.6725" fill="#154ED0"/>
<rect x="1111.89" y="1031.08" width="82.1128" height="65.6725" stroke="#FBFDFF" stroke-width="0.5"/>
<rect x="1194.09" y="1063.96" width="131.434" height="16.3514" fill="#D0F583"/>
<rect x="1194.09" y="1063.96" width="131.434" height="16.3514" stroke="#FBFDFF" stroke-width="0.5"/>
<rect x="1095.86" y="915.995" width="131.434" height="98.5532" fill="#00AFF2"/>
<rect x="1095.86" y="915.995" width="131.434" height="98.5532" stroke="#FBFDFF" stroke-width="0.5"/>
<rect x="1072.85" y="896.266" width="22.9275" height="118.282" fill="#00AFF2"/>
<rect x="1072.85" y="896.266" width="22.9275" height="118.282" stroke="#FBFDFF" stroke-width="0.5"/>
<rect x="1013.25" y="1014.64" width="180.755" height="16.3514" fill="#FF7557"/>
<rect x="1013.25" y="1014.64" width="180.755" height="16.3514" stroke="#FBFDFF" stroke-width="0.5"/>
<rect x="1227.39" y="915.995" width="98.5532" height="52.5202" fill="#FF7557"/>
<rect x="1227.39" y="915.995" width="98.5532" height="52.5202" stroke="#FBFDFF" stroke-width="0.5"/>
<rect x="1227.39" y="968.604" width="29.5037" height="45.944" fill="#154ED0"/>
<rect x="1227.39" y="968.604" width="29.5037" height="45.944" stroke="#FBFDFF" stroke-width="0.5"/>
</g>
</g>
</g>
<defs>
<clipPath id="clip0_1_205">
<rect width="1440" height="1200" fill="white"/>
</clipPath>
<clipPath id="clip1_1_205">
<rect width="312" height="257" fill="white" transform="translate(0 457)"/>
</clipPath>
<clipPath id="clip2_1_205">
<rect width="1440" height="440" fill="white" transform="translate(0 760)"/>
</clipPath>
<clipPath id="clip3_1_205">
<rect width="312" height="257" fill="white" transform="translate(1014 856)"/>
</clipPath>
</defs>
</svg>
